<svg width="141" height="47" viewBox="0 0 141 47" fill="none" xmlns="http://www.w3.org/2000/svg">
<g clip-path="url(#clip0_2_720)">
<path d="M129.772 0.00015275H11.2347C10.8026 0.00015275 10.3757 0.00015275 9.94478 0.00250275C9.58405 0.00485275 9.22618 0.0116795 8.86198 0.0174252C8.07077 0.0267099 7.28142 0.0961224 6.50079 0.225059C5.72126 0.356804 4.96614 0.605179 4.26099 0.961784C3.55669 1.32141 2.91316 1.7887 2.35373 2.34671C1.79137 2.90315 1.3226 3.54632 0.965439 4.25149C0.607295 4.95526 0.358957 5.70941 0.229002 6.48789C0.0978117 7.2654 0.0272168 8.05186 0.0178512 8.84024C0.00691661 9.2005 0.00576188 9.56195 0 9.92225V37.0815C0.00576188 37.4463 0.00691661 37.7998 0.0178512 38.1647C0.0272197 38.9531 0.0978146 39.7395 0.229002 40.517C0.358599 41.2959 0.606951 42.0505 0.965439 42.7545C1.32243 43.4574 1.79127 44.098 2.35373 44.6513C2.91104 45.2118 3.55499 45.6794 4.26099 46.0363C4.96614 46.3939 5.72117 46.6437 6.50079 46.7775C7.28155 46.9054 8.07082 46.9748 8.86198 46.9852C9.22618 46.9932 9.58405 46.9978 9.94478 46.9978C10.3757 47.0002 10.8026 47.0001 11.2347 47.0001H129.772C130.195 47.0001 130.625 47.0002 131.049 46.9978C131.408 46.9978 131.776 46.9932 132.135 46.9852C132.925 46.9754 133.713 46.9059 134.492 46.7775C135.274 46.6428 136.032 46.393 136.74 46.0363C137.446 45.6792 138.089 45.2116 138.646 44.6513C139.207 44.0958 139.677 43.4557 140.038 42.7545C140.394 42.05 140.64 41.2955 140.768 40.517C140.899 39.7394 140.972 38.9531 140.986 38.1647C140.991 37.7998 140.991 37.4463 140.991 37.0815C141 36.6546 141 36.2301 141 35.7963V11.2051C141 10.7748 141 10.348 140.991 9.92225C140.991 9.56195 140.991 9.2005 140.986 8.84019C140.972 8.05175 140.899 7.26545 140.768 6.48784C140.639 5.70981 140.393 4.95572 140.038 4.25144C139.311 2.83801 138.157 1.68748 136.74 0.961679C136.032 0.605944 135.274 0.357635 134.492 0.224954C133.713 0.0954485 132.925 0.0260119 132.135 0.0172607C131.776 0.0115267 131.408 0.00464125 131.049 0.00235C130.625 0 130.195 0.00015275 129.772 0.00015275Z" fill="#A6A6A6"/>
<path d="M9.95067 45.9719C9.59167 45.9719 9.24134 45.9673 8.88515 45.9593C8.14728 45.9497 7.41113 45.8857 6.68274 45.7677C6.00356 45.651 5.34562 45.434 4.73061 45.1239C4.12124 44.8163 3.56545 44.413 3.08453 43.9294C2.59664 43.4515 2.19045 42.8972 1.88206 42.2885C1.57027 41.6758 1.35449 41.0191 1.24225 40.3413C1.12103 39.6129 1.05544 38.8764 1.04606 38.1382C1.03859 37.8904 1.02881 37.0653 1.02881 37.0653V9.92211C1.02881 9.92211 1.03922 9.1097 1.04612 8.87103C1.0551 8.13393 1.12031 7.39858 1.24116 6.67134C1.35362 5.99163 1.56956 5.33304 1.88152 4.71838C2.18878 4.1101 2.59271 3.5554 3.07766 3.07579C3.56206 2.59162 4.11963 2.18622 4.73003 1.87438C5.34363 1.56522 6.00033 1.34977 6.67814 1.23525C7.40892 1.11607 8.14762 1.05163 8.88805 1.04248L9.95125 1.02814H131.043L132.119 1.04306C132.853 1.05175 133.585 1.11562 134.309 1.2341C134.994 1.35006 135.657 1.56701 136.278 1.87783C137.501 2.50627 138.496 3.50053 139.123 4.72124C139.43 5.33167 139.643 5.98488 139.754 6.65872C139.876 7.39193 139.945 8.13305 139.959 8.8762C139.962 9.20896 139.962 9.56639 139.962 9.92211C139.971 10.3627 139.971 10.7821 139.971 11.205V35.7962C139.971 36.223 139.971 36.6396 139.962 37.0595C139.962 37.4416 139.962 37.7917 139.958 38.1519C139.944 38.8818 139.877 39.6097 139.756 40.3298C139.646 41.0125 139.432 41.6743 139.12 42.292C138.809 42.8941 138.406 43.4436 137.923 43.9202C137.442 44.4064 136.885 44.8121 136.274 45.1217C135.655 45.4342 134.993 45.652 134.309 45.7677C133.581 45.8863 132.844 45.9504 132.106 45.9593C131.761 45.9673 131.4 45.9719 131.049 45.9719L129.772 45.9742L9.95067 45.9719Z" fill="black"/>
<path d="M29.1852 23.8533C29.1978 22.8726 29.4591 21.911 29.9446 21.058C30.43 20.205 31.124 19.4883 31.9619 18.9746C31.4296 18.2166 30.7274 17.5927 29.9111 17.1526C29.0947 16.7125 28.1867 16.4683 27.2591 16.4393C25.2805 16.2322 23.3623 17.62 22.354 17.62C21.3262 17.62 19.7738 16.4599 18.1021 16.4942C17.0208 16.529 15.967 16.8426 15.0433 17.4043C14.1197 17.966 13.3577 18.7568 12.8317 19.6995C10.5528 23.6338 12.2526 29.4161 14.4356 32.5963C15.5277 34.1536 16.8041 35.8932 18.4743 35.8315C20.1087 35.7639 20.7191 34.7922 22.6919 34.7922C24.6464 34.7922 25.2191 35.8315 26.9232 35.7923C28.677 35.7639 29.7819 34.228 30.8357 32.656C31.6205 31.5464 32.2243 30.32 32.6249 29.0223C31.606 28.5926 30.7365 27.8733 30.1248 26.9541C29.5132 26.0349 29.1864 24.9565 29.1852 23.8533Z" fill="white"/>
<path d="M25.9665 14.3478C26.9227 13.2031 27.3938 11.7318 27.2798 10.2463C25.8189 10.3993 24.4694 11.0956 23.5003 12.1963C23.0264 12.7341 22.6635 13.3597 22.4323 14.0374C22.2011 14.7151 22.106 15.4316 22.1526 16.146C22.8834 16.1535 23.6062 15.9955 24.2669 15.6841C24.9275 15.3726 25.5086 14.9157 25.9665 14.3478Z" fill="white"/>
<path d="M49.8445 31.8891H44.2672L42.9278 35.8329H40.5654L45.8482 21.2418H48.3026L53.5854 35.8329H51.1828L49.8445 31.8891ZM44.8448 30.0692H49.2658L47.0864 23.6687H47.0254L44.8448 30.0692Z" fill="white"/>
<path d="M64.9943 30.5144C64.9943 33.8203 63.2199 35.9442 60.5423 35.9442C59.864 35.9796 59.1894 35.8238 58.5958 35.4946C58.0022 35.1655 57.5135 34.6763 57.1857 34.083H57.1351V39.3522H54.9453V25.1948H57.0649V26.9642H57.1052C57.448 26.3738 57.9449 25.8871 58.5431 25.556C59.1412 25.2248 59.8182 25.0615 60.502 25.0835C63.2095 25.0835 64.9943 27.2178 64.9943 30.5144ZM62.7435 30.5144C62.7435 28.3607 61.6273 26.9447 59.9243 26.9447C58.2513 26.9447 57.1259 28.3905 57.1259 30.5144C57.1259 32.6579 58.2513 34.0934 59.9243 34.0934C61.6274 34.0934 62.7435 32.6877 62.7435 30.5144Z" fill="white"/>
<path d="M76.736 30.5144C76.736 33.8203 74.9616 35.9442 72.284 35.9442C71.6057 35.9796 70.9311 35.8238 70.3375 35.4946C69.7439 35.1655 69.2552 34.6763 68.9274 34.083H68.8768V39.3522H66.687V25.1948H68.8066V26.9642H68.8468C69.1897 26.3738 69.6866 25.8871 70.2847 25.556C70.8829 25.2248 71.5599 25.0615 72.2437 25.0835C74.9512 25.0835 76.736 27.2178 76.736 30.5144ZM74.4852 30.5144C74.4852 28.3607 73.369 26.9447 71.666 26.9447C69.993 26.9447 68.8676 28.3905 68.8676 30.5144C68.8676 32.6579 69.993 34.0934 71.666 34.0934C73.3691 34.0934 74.4852 32.6877 74.4852 30.5144Z" fill="white"/>
<path d="M84.496 31.7675C84.6582 33.2144 86.0678 34.1645 87.994 34.1645C89.8397 34.1645 91.1676 33.2144 91.1676 31.9097C91.1676 30.7771 90.3667 30.099 88.4704 29.6343L86.5741 29.1787C83.8873 28.5316 82.6399 27.2785 82.6399 25.2452C82.6399 22.7277 84.84 20.9985 87.9641 20.9985C91.056 20.9985 93.1756 22.7277 93.2469 25.2452H91.0364C90.9041 23.7891 89.697 22.9102 87.933 22.9102C86.169 22.9102 84.962 23.7994 84.962 25.0938C84.962 26.1253 85.7329 26.7323 87.6189 27.197L89.231 27.5918C92.2331 28.2997 93.4805 29.5023 93.4805 31.6365C93.4805 34.3664 91.2999 36.0761 87.8318 36.0761C84.5868 36.0761 82.3959 34.4065 82.2544 31.7673L84.496 31.7675Z" fill="white"/>
<path d="M98.2068 22.6773V25.1948H100.235V26.924H98.2068V32.7887C98.2068 33.6998 98.613 34.1243 99.5048 34.1243C99.7456 34.1202 99.986 34.1033 100.225 34.0738V35.7927C99.8241 35.8674 99.4166 35.9013 99.0088 35.8937C96.849 35.8937 96.0067 35.0847 96.0067 33.0216V26.924H94.4556V25.1948H96.0067V22.6773H98.2068Z" fill="white"/>
<path d="M101.41 30.5144C101.41 27.1673 103.387 25.064 106.47 25.064C109.563 25.064 111.53 27.1672 111.53 30.5144C111.53 33.8708 109.573 35.9649 106.47 35.9649C103.367 35.9649 101.41 33.8707 101.41 30.5144ZM109.299 30.5144C109.299 28.2184 108.244 26.8632 106.47 26.8632C104.695 26.8632 103.641 28.2287 103.641 30.5144C103.641 32.8197 104.695 34.1645 106.47 34.1645C108.244 34.1645 109.299 32.8197 109.299 30.5144Z" fill="white"/>
<path d="M113.336 25.1948H115.424V27.0055H115.475C115.616 26.44 115.949 25.9402 116.416 25.5902C116.883 25.2402 117.457 25.0612 118.041 25.0835C118.293 25.0826 118.545 25.1099 118.791 25.165V27.2074C118.473 27.1104 118.14 27.0658 117.807 27.0755C117.489 27.0626 117.172 27.1185 116.878 27.2394C116.583 27.3603 116.319 27.5433 116.102 27.7758C115.885 28.0084 115.721 28.2849 115.622 28.5865C115.523 28.8881 115.49 29.2076 115.526 29.523V35.8329H113.336L113.336 25.1948Z" fill="white"/>
<path d="M128.887 32.7084C128.593 34.6396 126.707 35.9649 124.294 35.9649C121.19 35.9649 119.264 33.8914 119.264 30.5649C119.264 27.2281 121.201 25.064 124.202 25.064C127.153 25.064 129.009 27.0858 129.009 30.3113V31.0595H121.475V31.1914C121.44 31.5829 121.489 31.9774 121.619 32.3485C121.749 32.7196 121.956 33.0589 122.228 33.3439C122.499 33.6289 122.828 33.853 123.193 34.0014C123.558 34.1498 123.951 34.2191 124.344 34.2047C124.862 34.253 125.381 34.1335 125.825 33.8639C126.269 33.5943 126.614 33.189 126.808 32.7084L128.887 32.7084ZM121.485 29.5334H126.818C126.838 29.1813 126.785 28.8291 126.661 28.4986C126.538 28.1682 126.347 27.8668 126.102 27.6133C125.856 27.3597 125.56 27.1596 125.233 27.0254C124.906 26.8912 124.555 26.8258 124.202 26.8334C123.845 26.8313 123.492 26.8996 123.162 27.0344C122.832 27.1692 122.532 27.3679 122.279 27.6189C122.027 27.8699 121.826 28.1683 121.69 28.4969C121.554 28.8255 121.484 29.1778 121.485 29.5334Z" fill="white"/>
<path d="M44.5703 10.2589C45.0294 10.2261 45.4901 10.2952 45.9191 10.4614C46.3481 10.6276 46.7348 10.8867 47.0513 11.2199C47.3678 11.5532 47.6061 11.9523 47.7492 12.3886C47.8922 12.8248 47.9364 13.2873 47.8785 13.7426C47.8785 15.9825 46.6646 17.27 44.5703 17.27H42.0308V10.2589H44.5703ZM43.1228 16.2785H44.4483C44.7764 16.298 45.1047 16.2444 45.4093 16.1215C45.7139 15.9985 45.9873 15.8094 46.2094 15.5679C46.4315 15.3263 46.5968 15.0385 46.6932 14.7252C46.7897 14.4119 46.8149 14.0811 46.767 13.7569C46.8114 13.434 46.7836 13.1052 46.6857 12.7943C46.5878 12.4833 46.4221 12.1978 46.2005 11.9581C45.9789 11.7185 45.7069 11.5307 45.404 11.4083C45.101 11.2858 44.7747 11.2316 44.4483 11.2497H43.1228V16.2785Z" fill="white"/>
<path d="M49.1119 14.6221C49.0786 14.2744 49.1185 13.9236 49.229 13.5922C49.3396 13.2607 49.5184 12.956 49.754 12.6975C49.9896 12.439 50.2768 12.2325 50.5971 12.0912C50.9174 11.9499 51.2638 11.8769 51.6141 11.8769C51.9644 11.8769 52.3108 11.9499 52.6311 12.0912C52.9514 12.2325 53.2386 12.439 53.4742 12.6975C53.7098 12.956 53.8886 13.2607 53.9992 13.5922C54.1097 13.9236 54.1496 14.2744 54.1163 14.6221C54.1502 14.9702 54.1108 15.3215 54.0005 15.6534C53.8903 15.9854 53.7116 16.2907 53.4759 16.5497C53.2403 16.8087 52.9529 17.0156 52.6322 17.1572C52.3116 17.2989 51.9648 17.372 51.6141 17.372C51.2634 17.372 50.9166 17.2989 50.5959 17.1572C50.2753 17.0156 49.9879 16.8087 49.7523 16.5497C49.5166 16.2907 49.3379 15.9854 49.2276 15.6534C49.1174 15.3215 49.0779 14.9702 49.1119 14.6221ZM53.0392 14.6221C53.0392 13.4752 52.5225 12.8045 51.6158 12.8045C50.7056 12.8045 50.1936 13.4752 50.1936 14.6221C50.1936 15.7782 50.7057 16.4437 51.6158 16.4437C52.5226 16.4437 53.0392 15.7736 53.0392 14.6221Z" fill="white"/>
<path d="M60.7686 17.2699H59.6824L58.5858 13.3731H58.503L57.411 17.2699H56.3351L54.8726 11.9789H55.9346L56.8851 16.0162H56.9634L58.0542 11.9789H59.0587L60.1496 16.0162H60.2324L61.1783 11.9789H62.2254L60.7686 17.2699Z" fill="white"/>
<path d="M63.4551 11.9789H64.4631V12.8194H64.5413C64.6741 12.5176 64.8979 12.2645 65.1818 12.0955C65.4656 11.9265 65.7952 11.8501 66.1247 11.8768C66.3828 11.8574 66.6421 11.8963 66.8831 11.9904C67.1242 12.0845 67.341 12.2315 67.5173 12.4205C67.6937 12.6095 67.8252 12.8356 67.902 13.0821C67.9788 13.3287 67.999 13.5893 67.9611 13.8447V17.2698H66.914V14.1069C66.914 13.2566 66.5435 12.8338 65.7691 12.8338C65.5938 12.8256 65.4188 12.8554 65.2562 12.921C65.0935 12.9866 64.947 13.0865 64.8266 13.2138C64.7063 13.3412 64.615 13.493 64.559 13.6588C64.503 13.8246 64.4836 14.0006 64.5022 14.1746V17.2699H63.4551L63.4551 11.9789Z" fill="white"/>
<path d="M69.6299 9.91348H70.677V17.2699H69.6299V9.91348Z" fill="white"/>
<path d="M72.1324 14.6221C72.0991 14.2744 72.139 13.9235 72.2496 13.5921C72.3602 13.2607 72.539 12.9559 72.7747 12.6974C73.0103 12.439 73.2975 12.2324 73.6178 12.0911C73.9381 11.9498 74.2846 11.8768 74.6349 11.8768C74.9852 11.8768 75.3316 11.9498 75.6519 12.0911C75.9723 12.2324 76.2595 12.439 76.4951 12.6974C76.7307 12.9559 76.9095 13.2607 77.0201 13.5921C77.1307 13.9235 77.1706 14.2744 77.1373 14.6221C77.1713 14.9702 77.1318 15.3215 77.0215 15.6535C76.9112 15.9854 76.7324 16.2907 76.4968 16.5497C76.2611 16.8087 75.9737 17.0156 75.653 17.1572C75.3324 17.2989 74.9856 17.372 74.6349 17.372C74.2842 17.372 73.9373 17.2989 73.6167 17.1572C73.296 17.0156 73.0086 16.8087 72.773 16.5497C72.5373 16.2907 72.3585 15.9854 72.2482 15.6535C72.1379 15.3215 72.0985 14.9702 72.1324 14.6221ZM76.0597 14.6221C76.0597 13.4752 75.543 12.8045 74.6363 12.8045C73.7261 12.8045 73.2141 13.4752 73.2141 14.6221C73.2141 15.7782 73.7261 16.4437 74.6363 16.4437C75.543 16.4437 76.0597 15.7736 76.0597 14.6221Z" fill="white"/>
<path d="M78.2397 15.7736C78.2397 14.8212 78.9509 14.2721 80.2132 14.1941L81.6504 14.1115V13.6548C81.6504 13.096 81.2798 12.7804 80.5641 12.7804C79.9796 12.7804 79.5745 12.9944 79.4583 13.3685H78.4446C78.5516 12.4597 79.4088 11.8768 80.6125 11.8768C81.9426 11.8768 82.6929 12.5372 82.6929 13.6548V17.2699H81.6849V16.5263H81.602C81.4339 16.793 81.1977 17.0105 80.9178 17.1564C80.6378 17.3024 80.3239 17.3716 80.0083 17.357C79.7856 17.3801 79.5605 17.3564 79.3475 17.2875C79.1345 17.2185 78.9384 17.1058 78.7717 16.9566C78.6051 16.8074 78.4717 16.6251 78.38 16.4213C78.2884 16.2175 78.2406 15.9969 78.2397 15.7736ZM81.6504 15.3215V14.8791L80.3547 14.9617C79.624 15.0105 79.2926 15.2584 79.2926 15.7248C79.2926 16.201 79.7069 16.4781 80.2765 16.4781C80.4434 16.4949 80.612 16.4781 80.7722 16.4287C80.9325 16.3792 81.0811 16.2981 81.2093 16.1902C81.3375 16.0823 81.4426 15.9498 81.5184 15.8005C81.5941 15.6513 81.639 15.4884 81.6504 15.3215Z" fill="white"/>
<path d="M84.0693 14.6221C84.0693 12.9503 84.9312 11.8911 86.2717 11.8911C86.6033 11.8759 86.9324 11.9551 87.2206 12.1195C87.5087 12.2839 87.7439 12.5266 87.8988 12.8194H87.9771V9.91348H89.0242V17.2699H88.0208V16.4339H87.9379C87.7711 16.7247 87.5276 16.9645 87.2339 17.1272C86.9402 17.2899 86.6075 17.3694 86.2718 17.357C84.922 17.3571 84.0693 16.298 84.0693 14.6221ZM85.151 14.6221C85.151 15.7443 85.6815 16.4196 86.5687 16.4196C87.4512 16.4196 87.9967 15.7346 87.9967 14.6267C87.9967 13.524 87.4455 12.8292 86.5687 12.8292C85.6872 12.8292 85.151 13.5091 85.151 14.6221Z" fill="white"/>
<path d="M93.3566 14.6221C93.3232 14.2744 93.3631 13.9236 93.4737 13.5922C93.5842 13.2607 93.7631 12.956 93.9986 12.6975C94.2342 12.439 94.5214 12.2325 94.8417 12.0912C95.162 11.9499 95.5084 11.8769 95.8587 11.8769C96.209 11.8769 96.5554 11.9499 96.8757 12.0912C97.196 12.2325 97.4832 12.439 97.7188 12.6975C97.9544 12.956 98.1332 13.2607 98.2438 13.5922C98.3543 13.9236 98.3942 14.2744 98.3609 14.6221C98.3949 14.9702 98.3555 15.3215 98.2452 15.6534C98.1349 15.9854 97.9562 16.2907 97.7205 16.5497C97.4849 16.8087 97.1975 17.0156 96.8769 17.1572C96.5562 17.2989 96.2094 17.372 95.8587 17.372C95.508 17.372 95.1612 17.2989 94.8406 17.1572C94.5199 17.0156 94.2326 16.8087 93.9969 16.5497C93.7612 16.2907 93.5825 15.9854 93.4723 15.6534C93.362 15.3215 93.3226 14.9702 93.3566 14.6221ZM97.2838 14.6221C97.2838 13.4752 96.7672 12.8045 95.8604 12.8045C94.9503 12.8045 94.4382 13.4752 94.4382 14.6221C94.4382 15.7782 94.9503 16.4437 95.8604 16.4437C96.7672 16.4437 97.2838 15.7736 97.2838 14.6221Z" fill="white"/>
<path d="M99.7656 11.9789H100.774V12.8194H100.852C100.985 12.5176 101.208 12.2645 101.492 12.0955C101.776 11.9265 102.106 11.8501 102.435 11.8768C102.693 11.8574 102.953 11.8963 103.194 11.9904C103.435 12.0845 103.652 12.2315 103.828 12.4205C104.004 12.6095 104.136 12.8356 104.213 13.0821C104.289 13.3287 104.31 13.5893 104.272 13.8447V17.2698H103.225V14.1069C103.225 13.2566 102.854 12.8338 102.08 12.8338C101.904 12.8256 101.729 12.8554 101.567 12.921C101.404 12.9866 101.258 13.0865 101.137 13.2138C101.017 13.3412 100.926 13.493 100.87 13.6588C100.814 13.8246 100.794 14.0006 100.813 14.1746V17.2699H99.7656V11.9789Z" fill="white"/>
<path d="M110.188 10.6617V12.003H111.338V12.8826H110.188V15.6032C110.188 16.1574 110.417 16.4001 110.939 16.4001C111.072 16.3997 111.205 16.3916 111.338 16.376V17.2458C111.15 17.2793 110.959 17.2972 110.768 17.2991C109.604 17.2991 109.14 16.8906 109.14 15.8705V12.8825H108.298V12.003H109.14V10.6617H110.188Z" fill="white"/>
<path d="M112.769 9.91348H113.806V12.8292H113.889C114.029 12.5245 114.259 12.27 114.548 12.1004C114.838 11.9308 115.172 11.8543 115.507 11.8814C115.764 11.8674 116.021 11.9102 116.259 12.0066C116.497 12.103 116.711 12.2507 116.886 12.4391C117.061 12.6275 117.191 12.8519 117.269 13.0965C117.346 13.3411 117.369 13.5997 117.334 13.8539V17.2699H116.286V14.1115C116.286 13.2664 115.892 12.8384 115.152 12.8384C114.972 12.8236 114.791 12.8483 114.621 12.9106C114.452 12.973 114.298 13.0715 114.171 13.1992C114.044 13.327 113.946 13.481 113.885 13.6503C113.823 13.8197 113.8 14.0004 113.816 14.1797V17.2698H112.769L112.769 9.91348Z" fill="white"/>
<path d="M123.44 15.8413C123.297 16.3248 122.989 16.7431 122.569 17.0229C122.149 17.3028 121.643 17.4263 121.141 17.372C120.791 17.3812 120.444 17.3144 120.123 17.1763C119.801 17.0382 119.514 16.8321 119.281 16.5723C119.048 16.3124 118.874 16.0051 118.772 15.6716C118.67 15.3381 118.642 14.9865 118.69 14.641C118.643 14.2945 118.672 13.9421 118.774 13.6076C118.876 13.2731 119.048 12.9644 119.28 12.7023C119.512 12.4402 119.798 12.2308 120.118 12.0884C120.438 11.946 120.785 11.8738 121.136 11.8768C122.612 11.8768 123.503 12.8826 123.503 14.544V14.9084H119.756V14.9669C119.74 15.1611 119.764 15.3565 119.828 15.5407C119.892 15.7249 119.994 15.8937 120.127 16.0365C120.26 16.1792 120.421 16.2926 120.601 16.3694C120.78 16.4463 120.974 16.4848 121.169 16.4827C121.42 16.5127 121.674 16.4677 121.898 16.3535C122.123 16.2392 122.309 16.0609 122.432 15.8412L123.44 15.8413ZM119.756 14.1361H122.436C122.449 13.9586 122.425 13.7802 122.365 13.6125C122.305 13.4448 122.211 13.2915 122.088 13.1624C121.965 13.0333 121.816 12.9313 121.651 12.863C121.486 12.7946 121.309 12.7614 121.13 12.7655C120.949 12.7632 120.769 12.7971 120.602 12.8652C120.434 12.9333 120.281 13.0342 120.153 13.1619C120.025 13.2897 119.924 13.4417 119.856 13.609C119.788 13.7763 119.754 13.9556 119.756 14.1361Z" fill="white"/>
</g>
<defs>
<clipPath id="clip0_2_720">
<rect width="141" height="47" fill="white"/>
</clipPath>
</defs>
</svg>
