<svg xmlns="http://www.w3.org/2000/svg" viewBox="0 0 126.01 103.47"><defs><style>.cls-1{fill:#fff;}.cls-2{fill:#ffb600;}.cls-3{fill:#00b8de;}</style></defs><title>Beach Liga Schrift Mitte</title><g id="Ebene_2" data-name="Ebene 2"><g id="Beach_Liga_Logo_Variation" data-name="Beach Liga Logo Variation"><g id="Beach_Liga_Schrift_Mitte" data-name="Beach Liga Schrift Mitte"><path id="Weiße_Kreis" data-name="Weiße Kreis" class="cls-1" d="M116.06,47.34c-.06-.84-.16-1.68-.27-2.51a51.73,51.73,0,1,0-2.37,23.8c.3-.85.57-1.71.82-2.57a51.73,51.73,0,0,0,2-14.33C116.25,50.25,116.19,48.79,116.06,47.34Zm-37.5,2.22c.41-2.78.84-5.56,1.25-8.35a2.54,2.54,0,0,0-.55-2.14,2.49,2.49,0,0,0-1.92-.86l-.41,0c-2.07.25-4.29.5-6.56.74A2.9,2.9,0,0,0,69,39.5l-.46-.11a8,8,0,0,0-1.42-.12l-.72,0a13.91,13.91,0,0,0-10.59,5.3c-.25.31-.48.63-.7.95a5.59,5.59,0,0,0-4.11-4,10,10,0,0,0-2.45-.28c-.75,0-1.47.07-2.08.13a14.18,14.18,0,0,0-9,4.28A17.4,17.4,0,0,0,34,50.82a8.06,8.06,0,0,0-2.13-2.34l-.21-.15-.19-.13c-.14-.1-.28-.18-.41-.26a9.48,9.48,0,0,0,.78-1.2,7.22,7.22,0,0,0-1.23-9.12,10.05,10.05,0,0,0-4.34-2.35,14.64,14.64,0,0,0-2.54-.44C30.17,17.67,46.35,5.64,64.49,5.34c.76,0,1.52,0,2.28,0l.57,0c.49,0,1,.05,1.47.1s1,.1,1.57.17l.38,0c.44,0,.88.11,1.32.19.61.1,1.22.22,1.82.34l.63.14c.44.1.88.2,1.31.32s1,.27,1.53.43l.34.1c.42.13.84.26,1.26.41l.5.17c.48.17,1,.35,1.43.54l1.44.6c.38.16.75.33,1.12.51s.72.34,1.07.52.59.3.88.46c1.06.55,2.09,1.16,3.1,1.81l.69.45.85.57,1.08.79c.31.22.62.45.92.7a42.46,42.46,0,0,1,3.38,2.93c.26.24.52.49.77.75a3.91,3.91,0,0,1,.35.36c.26.25.5.5.73.75l.42.46c.22.24.44.48.65.73.7.8,1.37,1.62,2,2.47l.13.18c.21.28.42.56.62.85s.48.67.71,1,.49.74.73,1.12.54.87.8,1.31c.06.09.11.19.17.29a2.85,2.85,0,0,0-2.26,2.47c-.15,1.08-.32,2.15-.48,3.22l-.11.69L100,38.5a5.34,5.34,0,0,0-2.78-2A10.16,10.16,0,0,0,94.1,36a17.54,17.54,0,0,0-2,.13,14.32,14.32,0,0,0-9.34,4.74,16.85,16.85,0,0,0-4.18,8.79h0S78.55,49.6,78.56,49.56Zm-46.91.53a8.17,8.17,0,0,0-1-1.14A7.56,7.56,0,0,1,31.65,50.09ZM30.2,48.56a4.46,4.46,0,0,0-.43-.33l.38.28ZM64.64,101.5A49.69,49.69,0,0,1,24.25,80.81a13.66,13.66,0,0,0,2.35-.56,47.72,47.72,0,0,0,84.58-14.74A6.65,6.65,0,0,0,112,67,49.81,49.81,0,0,1,64.64,101.5Zm46.41-63.72a47.8,47.8,0,0,0-93.33,8.65c-.89.13-1.77.3-2.62.51a49.78,49.78,0,0,1,97.54-8.38A2.4,2.4,0,0,0,111.05,37.78Z"/><g id="Kreis"><path class="cls-2" d="M64.68,2A49.78,49.78,0,1,0,114.45,51.8,49.78,49.78,0,0,0,64.68,2Zm.45,98.14A48.12,48.12,0,1,1,113,52,48,48,0,0,1,65.13,100.16Z"/></g><path id="Blauer_Hintergrund" data-name="Blauer Hintergrund" class="cls-3" d="M103.52,28a2.85,2.85,0,0,0-2.26,2.47c-.15,1.08-.32,2.15-.48,3.22l-.11.69L100,38.5a5.34,5.34,0,0,0-2.78-2A10.16,10.16,0,0,0,94.1,36a17.54,17.54,0,0,0-2,.13,14.32,14.32,0,0,0-9.34,4.74,16.85,16.85,0,0,0-4.18,8.79h0s0-.08,0-.12c.41-2.78.84-5.56,1.25-8.35a2.54,2.54,0,0,0-.55-2.14,2.49,2.49,0,0,0-1.92-.86l-.41,0c-2.07.25-4.29.5-6.56.74A2.9,2.9,0,0,0,69,39.5l-.46-.11a8,8,0,0,0-1.42-.12l-.72,0a13.91,13.91,0,0,0-10.59,5.3c-.25.31-.48.63-.7.95a5.59,5.59,0,0,0-4.11-4,10,10,0,0,0-2.45-.28c-.75,0-1.47.07-2.08.13a14.18,14.18,0,0,0-9,4.28A17.4,17.4,0,0,0,34,50.82a8.06,8.06,0,0,0-2.13-2.34l-.21-.15-.19-.13c-.14-.1-.28-.18-.41-.26a9.48,9.48,0,0,0,.78-1.2,7.22,7.22,0,0,0-1.23-9.12,10.05,10.05,0,0,0-4.34-2.35,14.64,14.64,0,0,0-2.54-.44C30.17,17.67,46.35,5.64,64.49,5.34c.76,0,1.52,0,2.28,0l.57,0c.49,0,1,.05,1.47.1s1,.1,1.57.17l.38,0c.44,0,.88.11,1.32.19.61.1,1.22.22,1.82.34l.63.14c.44.1.88.2,1.31.32s1,.27,1.53.43l.34.1c.42.13.84.26,1.26.41l.5.17c.48.17,1,.35,1.43.54l1.44.6c.38.16.75.33,1.12.51s.72.34,1.07.52l.88.46c1.06.55,2.09,1.16,3.1,1.81l.69.45.85.57,1.08.79c.31.22.62.45.92.7a42.46,42.46,0,0,1,3.38,2.93c.26.24.52.49.77.75a3.91,3.91,0,0,1,.35.36c.26.25.5.5.73.75l.42.46c.22.24.44.48.65.73.7.8,1.37,1.62,2,2.47l.13.18c.21.28.42.56.62.85s.48.67.71,1,.49.74.73,1.12.54.87.8,1.31C103.41,27.78,103.46,27.88,103.52,28Z"/><path id="Liga" class="cls-3" d="M92.72,75.4c-.67,0-1-.28-1-1a3.11,3.11,0,0,1,0-.43q.43-3.73.9-7.46c0-.27-.07-.3-.28-.27-1,.15-2.1.29-3.14.46-.89.14-.89.15-1,1.08A1.38,1.38,0,0,0,87,67.12a7.37,7.37,0,0,0-4.21,1,8,8,0,0,0-3.74,7.66,1,1,0,0,1,.05.51,4.6,4.6,0,0,1-2.69,2.65l-.25.11c.19-1.64.38-3.2.57-4.77.22-1.82.44-3.65.67-5.47,0-.24,0-.33-.27-.28-1.16.19-2.32.35-3.49.49-.42.05-.67.18-.62.66,0,.1,0,.23-.11.31a1.31,1.31,0,0,0-1.13-.63A7,7,0,0,0,67,70.69a7.89,7.89,0,0,0-3.13,7.37.67.67,0,0,1-.05.46,2.87,2.87,0,0,1-2.45,1.42c-.62,0-.9-.28-.92-.9a19.52,19.52,0,0,1,.23-2.29c.21-1.87.44-3.74.67-5.61,0-.21,0-.37-.26-.32-1.24.19-2.46.37-3.7.54-.3,0-.39.17-.42.47-.2,1.83-.44,3.65-.64,5.48a16.91,16.91,0,0,0-.22,2.46,2.51,2.51,0,0,0,2.28,2.62,5.44,5.44,0,0,0,2.44-.24,6.61,6.61,0,0,0,1.55-.62,6.28,6.28,0,0,0,2.05-1.84,3.55,3.55,0,0,0,3.19,1.49,6.08,6.08,0,0,0,4.22-1.67A1.21,1.21,0,0,1,71,80.93a7.6,7.6,0,0,0-3,1.9,1.9,1.9,0,0,0,1,3.3,6.1,6.1,0,0,0,2.85,0,4.91,4.91,0,0,0,3.71-2.72A9.12,9.12,0,0,0,76,80.47a.52.52,0,0,1,.39-.53l.19-.08.19-.07a6.16,6.16,0,0,0,2.76-2c.14-.19.21-.15.34,0a3.21,3.21,0,0,0,1.62,1A5.64,5.64,0,0,0,85,78.58a5.78,5.78,0,0,0,2.64-2c.06-.08.15-.43.33-.08a2.43,2.43,0,0,0,2.3,1.37c2,0,3.06-.73,3.48-2.66A4,4,0,0,1,92.72,75.4Zm-22,8.88a1,1,0,0,1-.48.28A1.08,1.08,0,0,1,69,84.22c-.19-.32-.07-.75.34-1.16a7.21,7.21,0,0,1,2.18-1.3A3.67,3.67,0,0,1,70.69,84.28ZM72.8,71.56c-.2,1.7-.4,3.39-.63,5.08a2.66,2.66,0,0,1-2.55,2.1,1.33,1.33,0,0,1-1.26-1.13,6.48,6.48,0,0,1-.15-1.6,6.65,6.65,0,0,1,1.85-4.68A2.38,2.38,0,0,1,72,70.62C72.61,70.68,72.86,71,72.8,71.56ZM88,69.46c-.18,1.54-.37,3.08-.54,4.62a2.75,2.75,0,0,1-2.43,2.46,1.32,1.32,0,0,1-1.46-1.15,7.1,7.1,0,0,1,1.53-6.1,2.53,2.53,0,0,1,2-.9A.88.88,0,0,1,88,69.46Zm-39.87,15c.33-2.68.64-5.29,1-7.9s.65-5.2,1-7.88a6.61,6.61,0,0,0-2.23,1.51,4.28,4.28,0,0,0-1,4.31,2,2,0,0,0,.35.69c.06.07.19.12.13.24s-.15.06-.23.07a5.59,5.59,0,0,1-1.78,0,2.13,2.13,0,0,1-1.44-2.88,5,5,0,0,1,1.56-2.3,14.89,14.89,0,0,1,8.22-3.74c1-.12,1-.11.87.91L52.94,80.51c-.08.66-.17,1.32-.25,2,0,.14-.08.32.19.33a31.06,31.06,0,0,1,5.24,1,12.83,12.83,0,0,0,6.19.12,10.93,10.93,0,0,0,1.14-.39c.16-.06.27-.06.25.14a4.68,4.68,0,0,1-.78,2.62,2.79,2.79,0,0,1-2.26,1.11,11.43,11.43,0,0,1-4.32-.85c-1.79-.65-3.53-1.45-5.39-1.93A10.27,10.27,0,0,0,48.17,84.46ZM59.3,69.86a2.65,2.65,0,0,1-1.3-.3A1.49,1.49,0,0,1,57.68,67a3.08,3.08,0,0,1,3.52-.31A1.43,1.43,0,0,1,61.47,69,3,3,0,0,1,59.3,69.86Z"/><g id="Beach"><path class="cls-2" d="M8.92,69.26A1.18,1.18,0,0,1,8,68.85a1.27,1.27,0,0,1-.26-1.08C8.31,64.2,8.86,60.61,9.4,57l1.68-10.94c.17-1.12.34-2.23.5-3.35v0l-.35.25A7.9,7.9,0,0,0,8,47.55a7.23,7.23,0,0,0,0,3.27,2.1,2.1,0,0,0,.45.91,1.19,1.19,0,0,1-.81,2.06c-.44,0-.89.07-1.34.07a7.89,7.89,0,0,1-2.3-.32,4.16,4.16,0,0,1-3-3.94,7.93,7.93,0,0,1,2-5.53,18.81,18.81,0,0,1,6.14-4.86A27.46,27.46,0,0,1,19.8,36.16c.83-.08,1.56-.11,2.25-.11a14.62,14.62,0,0,1,3.92.48,8.8,8.8,0,0,1,3.79,2,6,6,0,0,1,1,7.54,8.8,8.8,0,0,1-1.85,2.31,7.22,7.22,0,0,1,2.25,1.1,6.89,6.89,0,0,1,2.21,2.79,10.06,10.06,0,0,1,.7,3.31,15.3,15.3,0,0,1,4.39-9,12.93,12.93,0,0,1,8.17-3.89,18.89,18.89,0,0,1,2-.12,9,9,0,0,1,2.14.24,4.4,4.4,0,0,1,3.33,4,7.45,7.45,0,0,1-2.32,6.09,15.79,15.79,0,0,1-8.26,4.39,6.23,6.23,0,0,0,.13,1.21c.24,1.11.59,1.41,1.63,1.41A9.3,9.3,0,0,0,51,58.07a1.56,1.56,0,0,1,.9-.35,1.23,1.23,0,0,1,1.2,1.09,5,5,0,0,0,.34.93A1.44,1.44,0,0,1,53,61.57a16.93,16.93,0,0,1-7.63,3.71,15.84,15.84,0,0,1-3.15.36h-.55a10.54,10.54,0,0,1-3.29-.51A6,6,0,0,1,34.13,60a18.63,18.63,0,0,1-.18-2.2,14.12,14.12,0,0,1-1,3.63,11.32,11.32,0,0,1-9,6.82,16,16,0,0,1-2.14.18h0A7.51,7.51,0,0,1,20,68.17a3.82,3.82,0,0,1-2.76-2c-.06.37-.11.74-.17,1.11a1.33,1.33,0,0,1-1.26,1.18L11.23,69l-2,.25Zm9.43-7.67a1.29,1.29,0,0,1,.73.25,5.21,5.21,0,0,0,1.47.65,3.61,3.61,0,0,0,.79.09,3.25,3.25,0,0,0,2.95-1.9,8,8,0,0,0,.27-6.23,2.77,2.77,0,0,0-3-1.93h-.2a14.3,14.3,0,0,0-2.08.27c-.23,1.57-.47,3.13-.71,4.69,0,0-.61,3.9-.65,4.21A1.08,1.08,0,0,1,18.35,61.59ZM47.9,46.73a1.24,1.24,0,0,0-.35.06,3.2,3.2,0,0,0-1.68,1.44,14.38,14.38,0,0,0-2,4.83A7.14,7.14,0,0,0,47,50.7a4.55,4.55,0,0,0,1.1-3v-.24c0-.1,0-.21,0-.31a.9.9,0,0,0-.11-.44ZM20.51,40.11a1.51,1.51,0,0,1,.23.21A1.31,1.31,0,0,1,21,41.46c-.24,1.55-.47,3.09-.7,4.64,0,0-.36,2.34-.38,2.51a6.93,6.93,0,0,0,4.43-4.46A2.84,2.84,0,0,0,22,40.34,7,7,0,0,0,20.51,40.11ZM18,40.27a16.56,16.56,0,0,0-2.71.62l2.88-.65ZM60.6,63.54a12.4,12.4,0,0,1-1.71-.12,6.56,6.56,0,0,1-5.48-5.68A15.61,15.61,0,0,1,56.84,45.4a12.58,12.58,0,0,1,9.64-4.81l.64,0a6.11,6.11,0,0,1,1.18.1,5.05,5.05,0,0,1,.81.21l.28.12a1.42,1.42,0,0,1,1.11-.72l6.6-.75.24,0a1.19,1.19,0,0,1,.93.41,1.3,1.3,0,0,1,.26,1.1l-2,13.48a2.9,2.9,0,0,0-.07.84c.08.58.27.64.65.64h.14a2.93,2.93,0,0,0,.85-.14,1.37,1.37,0,0,1,.55-.12,1.22,1.22,0,0,1,1.17.87,4.64,4.64,0,0,0,.58,1.14,1.35,1.35,0,0,1-.26,2,11.25,11.25,0,0,1-4.92,2.17,10.85,10.85,0,0,1-2,.21A8.36,8.36,0,0,1,71.81,62a4.69,4.69,0,0,1-3.27-2.06l-.11.11a12.43,12.43,0,0,1-2.16,1.81A10.19,10.19,0,0,1,60.6,63.54ZM67.86,45a2.71,2.71,0,0,0-1.7.55,6.19,6.19,0,0,0-1.25,1.33,12.67,12.67,0,0,0-2.21,8.09A4,4,0,0,0,63,56.67a1,1,0,0,0,1,.59h.17a3.46,3.46,0,0,0,3.11-2.92c.31-1.8.58-3.6.85-5.41l.54-3.53c0-.06,0-.08-.07-.21s-.16-.21-.65-.21ZM87.6,60.39a12.48,12.48,0,0,1-2.84-.32,6.13,6.13,0,0,1-5-5.49A15.36,15.36,0,0,1,83.7,41.77a12.88,12.88,0,0,1,8.51-4.32,17.22,17.22,0,0,1,1.88-.12,8.49,8.49,0,0,1,2.75.41,4.22,4.22,0,0,1,2.71,5.41A3.6,3.6,0,0,1,96,45.61a3.23,3.23,0,0,1-.53,0H95.3A2,2,0,0,1,93.88,45a1.5,1.5,0,0,1-.17-1.69.76.76,0,0,0,0-.11,4,4,0,0,0,0-1.37c-.08-.36-.17-.36-.28-.36l-.23,0a2.48,2.48,0,0,0-1.36,1,13.28,13.28,0,0,0-2.39,5.39,15.5,15.5,0,0,0-.31,5.1c.12,1.09.61,1.57,1.63,1.59h.22a9.37,9.37,0,0,0,5.26-1.52,1.72,1.72,0,0,1,.92-.43l1.39-.18L98,56.36a1.37,1.37,0,0,1-.71,1A17.11,17.11,0,0,1,89.2,60.3,14.85,14.85,0,0,1,87.6,60.39Zm12.08-1.53a1.22,1.22,0,0,1-1-.42,1.31,1.31,0,0,1-.27-1.12c.21-1.35.42-2.7.62-4l3-19.47c.16-1.06.33-2.12.47-3.18a1.53,1.53,0,0,1,1.28-1.38l5.23-1.16,1.25-.28a2.25,2.25,0,0,1,.52-.07h.49l.4.39a1.42,1.42,0,0,1,.23,1.26c-.37,2.33-.73,4.65-1.09,7a9.63,9.63,0,0,1,5.07-1.45,11,11,0,0,1,2.44.29,4.63,4.63,0,0,1,3.8,4.54A19.5,19.5,0,0,1,121.7,45c-.09.46-.19.92-.28,1.39a27.34,27.34,0,0,0-.53,3.11,2.29,2.29,0,0,0,0,.77c0,.24.12.33.43.34h.19a4.5,4.5,0,0,0,1.74-.34l1.55-.62-.11,1.66a5.13,5.13,0,0,1-1.68,3.72A7.67,7.67,0,0,1,117.91,57a10.51,10.51,0,0,1-2.37-.29,5,5,0,0,1-3.48-4.33,18.13,18.13,0,0,1,.38-5l.18-1a29.63,29.63,0,0,0,.55-3.86,2.87,2.87,0,0,0-.15-1.19.46.46,0,0,0-.52-.34,2.27,2.27,0,0,0-1.9,1,6,6,0,0,0-1,2.91c-.39,2.65-.8,5.3-1.2,7.94l-.51,3.32c0,.25-.08.49-.11.74a1.3,1.3,0,0,1-1.21,1.18l-5.58.63-1,.12A1.18,1.18,0,0,1,99.68,58.86Z"/><path class="cls-1" d="M110.82,28.79c.15,0,.13.1.08.44-.5,3.18-1,6.37-1.49,9.62.3-.27.55-.51.82-.73A8.89,8.89,0,0,1,115.92,36a9.45,9.45,0,0,1,2.2.27,3.59,3.59,0,0,1,3,3.6,18.32,18.32,0,0,1-.46,5c-.28,1.53-.67,3-.82,4.6a3.25,3.25,0,0,0,.07,1.08,1.38,1.38,0,0,0,1.42,1.18h.23a5.54,5.54,0,0,0,2.13-.42,4.12,4.12,0,0,1-1.32,3,6.61,6.61,0,0,1-4.46,1.67,9.24,9.24,0,0,1-2.12-.26,4,4,0,0,1-2.68-3.42,16.74,16.74,0,0,1,.37-4.68,41.52,41.52,0,0,0,.74-5A3.74,3.74,0,0,0,114,41a1.48,1.48,0,0,0-1.49-1h0a3.33,3.33,0,0,0-2.73,1.4,7.08,7.08,0,0,0-1.26,3.4c-.53,3.64-1.1,7.27-1.66,10.91,0,.37-.12.74-.16,1.11a.28.28,0,0,1-.29.27l-5.16.58c-.48.06-1,.1-1.44.17h-.12c-.18,0-.23-.09-.2-.33.29-1.79.56-3.58.84-5.37.44-2.89.89-5.79,1.33-8.68s.9-5.81,1.34-8.72c.21-1.31.41-2.62.59-3.94a.49.49,0,0,1,.46-.49l6.49-1.44a1.58,1.58,0,0,1,.29-.05M22.05,37.1a14.13,14.13,0,0,1,3.65.44A7.76,7.76,0,0,1,29,39.33a4.9,4.9,0,0,1,.78,6.27,8.85,8.85,0,0,1-3.1,3.16l-.47.3a7.73,7.73,0,0,1,4.26,1.3,5.89,5.89,0,0,1,1.88,2.37A9.52,9.52,0,0,1,33,56.15,12.66,12.66,0,0,1,32,60.93a10.31,10.31,0,0,1-8.18,6.23,15,15,0,0,1-2,.17,6.47,6.47,0,0,1-1.57-.18,2.63,2.63,0,0,1-2.26-2,4.68,4.68,0,0,1,.26-2.34c0-.11.08-.15.13-.15s.13.06.2.1a5.81,5.81,0,0,0,1.77.77,4.44,4.44,0,0,0,1,.12,4.27,4.27,0,0,0,3.9-2.5,9,9,0,0,0,.31-7,3.8,3.8,0,0,0-4-2.64h-.23a18.18,18.18,0,0,0-2.55.35.52.52,0,0,0-.49.5c-.34,2.3-.7,4.6-1.05,6.89q-.62,4-1.22,7.92c0,.24-.15.27-.34.29l-5.41.63c-.4,0-.8.09-1.2.15H8.92c-.11,0-.17,0-.14-.27q.9-5.76,1.78-11.51c.47-3.06.94-6.13,1.4-9.19.22-1.45.45-2.9.66-4.34a.47.47,0,0,1,.45-.46c2.19-.46,4.38-.95,6.56-1.45l.2,0c.16,0,.16.11.13.34-.35,2.22-.68,4.43-1,6.65-.08.56-.17,1.11-.25,1.67,0,.15,0,.23.14.23h0a7.74,7.74,0,0,0,6.49-5.45,3.89,3.89,0,0,0-3.1-5.08A9,9,0,0,0,20,39.05a14.41,14.41,0,0,0-2.16.18,15.45,15.45,0,0,0-7.25,2.9A9,9,0,0,0,7,47.32a8.06,8.06,0,0,0,0,3.75,3.12,3.12,0,0,0,.68,1.36c.16.17.17.28-.12.31s-.83.07-1.24.07a6.84,6.84,0,0,1-2-.27,3.12,3.12,0,0,1-2.26-3,6.87,6.87,0,0,1,1.75-4.8,17.82,17.82,0,0,1,5.81-4.6A26.44,26.44,0,0,1,19.89,37.2c.72-.06,1.44-.1,2.16-.1m72,1.28a7.44,7.44,0,0,1,2.42.36,3.19,3.19,0,0,1,2,4.12A2.56,2.56,0,0,1,96,44.56l-.4,0c-.33,0-.75,0-.95-.24s.09-.59.13-.89a4.55,4.55,0,0,0,0-1.8,1.29,1.29,0,0,0-1.3-1.18,2,2,0,0,0-.46.06,3.39,3.39,0,0,0-2,1.4,14.3,14.3,0,0,0-2.6,5.8,16.58,16.58,0,0,0-.33,5.44,2.53,2.53,0,0,0,2.66,2.53h.25A10.35,10.35,0,0,0,96.9,54a1.15,1.15,0,0,1,.49-.26c-.14.85-.27,1.68-.4,2.51,0,.18-.17.23-.29.31a15.9,15.9,0,0,1-7.61,2.75,14.87,14.87,0,0,1-1.49.08A11.36,11.36,0,0,1,85,59.05a5.1,5.1,0,0,1-4.16-4.61,14.43,14.43,0,0,1,3.63-12,12,12,0,0,1,7.84-4,17.52,17.52,0,0,1,1.77-.11M77.34,40.56c.18,0,.18.09.15.3q-1,6.62-2,13.22a4.74,4.74,0,0,0-.11,1.4A1.57,1.57,0,0,0,77.07,57h.22a3.35,3.35,0,0,0,1.18-.23l.14,0c.1,0,.14.08.19.19a5.56,5.56,0,0,0,.72,1.39c.17.24.15.36-.08.55a10,10,0,0,1-4.45,2,10.35,10.35,0,0,1-1.84.19A6.6,6.6,0,0,1,72,61a3.63,3.63,0,0,1-3-2.53c0-.12-.09-.24-.15-.42-.4.46-.75.91-1.15,1.32a11.13,11.13,0,0,1-2,1.65,9.14,9.14,0,0,1-5.1,1.52A11.93,11.93,0,0,1,59,62.38a5.55,5.55,0,0,1-4.6-4.79,14.61,14.61,0,0,1,3.22-11.54,11.58,11.58,0,0,1,8.88-4.41l.58,0a5.33,5.33,0,0,1,1,.08,4.55,4.55,0,0,1,.66.17,1.86,1.86,0,0,1,1.3,1.39c.07-.52.14-1,.2-1.56,0-.21.08-.35.36-.38q3.3-.34,6.6-.75h.12M64,58.31h.28a4.53,4.53,0,0,0,4-3.8c.5-3,.92-6,1.39-9a1.24,1.24,0,0,0-.25-1,1.7,1.7,0,0,0-1.51-.66h-.08a3.74,3.74,0,0,0-2.34.77,7.35,7.35,0,0,0-1.46,1.54A13.85,13.85,0,0,0,61.65,55a4.9,4.9,0,0,0,.46,2.19A2.05,2.05,0,0,0,64,58.31M48.56,43.62a8.11,8.11,0,0,1,1.89.21,3.35,3.35,0,0,1,2.54,3,6.43,6.43,0,0,1-2,5.27,15,15,0,0,1-7.91,4.13c-.66.13-.65.13-.66.79a7.55,7.55,0,0,0,.17,1.64,2.39,2.39,0,0,0,2.65,2.23h.07a10.39,10.39,0,0,0,6.34-2,.55.55,0,0,1,.26-.14c.09,0,.13.1.18.3a5.93,5.93,0,0,0,.42,1.13.39.39,0,0,1-.15.56,15.86,15.86,0,0,1-7.16,3.49,14.83,14.83,0,0,1-3,.34h-.54a9.17,9.17,0,0,1-3-.46,5,5,0,0,1-3.55-4.33,14.36,14.36,0,0,1,4-12.49,11.91,11.91,0,0,1,7.53-3.57,16.06,16.06,0,0,1,1.83-.12M42.7,54.45h.14a8.17,8.17,0,0,0,4.95-3.09,5.64,5.64,0,0,0,1.32-3.67c0-.2,0-.4,0-.61-.06-.91-.48-1.39-1.2-1.39a2.07,2.07,0,0,0-.66.11A4.23,4.23,0,0,0,45,47.66a16.36,16.36,0,0,0-2.41,6.56c0,.17,0,.23.12.23m68.12-27.76a3,3,0,0,0-.75.1l-1.27.28-5.21,1.16a2.59,2.59,0,0,0-2.09,2.26c-.14,1.07-.31,2.14-.48,3.22l-.1.68-.74,4.82a5.15,5.15,0,0,0-3-2.47,9.71,9.71,0,0,0-3.08-.46h0a17.2,17.2,0,0,0-2,.13,14.14,14.14,0,0,0-9.18,4.66,16.4,16.4,0,0,0-4.15,13.6h-.15a2.39,2.39,0,0,0-1,.21l-.15,0,0-.22,0-.28L78.23,50c.45-2.93.89-5.87,1.33-8.8a2.3,2.3,0,0,0-.49-1.93,2.23,2.23,0,0,0-1.73-.78l-.38,0c-2.08.25-4.29.5-6.57.74a2.54,2.54,0,0,0-1.32.54l-.57-.13a7.47,7.47,0,0,0-1.38-.12l-.7,0A13.6,13.6,0,0,0,56,44.75c-.37.46-.7.92-1,1.39A5.44,5.44,0,0,0,51,41.79a10,10,0,0,0-2.39-.27,20.23,20.23,0,0,0-2.05.13,14,14,0,0,0-8.83,4.21,17.1,17.1,0,0,0-3.61,5.52,8,8,0,0,0-2.31-2.7A7.35,7.35,0,0,0,30.71,48a9.32,9.32,0,0,0,.95-1.4,7,7,0,0,0-1.19-8.82,9.76,9.76,0,0,0-4.23-2.29A16.14,16.14,0,0,0,22.05,35c-.72,0-1.48,0-2.34.11a28.6,28.6,0,0,0-11,3.17,19.91,19.91,0,0,0-6.47,5.14A8.89,8.89,0,0,0,0,49.67a5.16,5.16,0,0,0,3.74,4.88,9,9,0,0,0,2.61.36c.44,0,.91,0,1.44-.08a2.57,2.57,0,0,0,.91-.25l-.24,1.54-.15,1c-.54,3.5-1.07,7-1.62,10.51a2.28,2.28,0,0,0,.5,1.92,2.25,2.25,0,0,0,1.71.78l.4,0,1.18-.15.73-.08,4.66-.54a2.38,2.38,0,0,0,1.87-1.15,6.15,6.15,0,0,0,2,.83,8.58,8.58,0,0,0,2.07.24,16.31,16.31,0,0,0,2.29-.19,12.26,12.26,0,0,0,9.59-7,7,7,0,0,0,4.39,3.9,11.43,11.43,0,0,0,3.62.57h.54a16.47,16.47,0,0,0,3.37-.38,18.12,18.12,0,0,0,8.1-3.94,2.89,2.89,0,0,0,.45-.48,7.32,7.32,0,0,0,4.59,2.56,12,12,0,0,0,1.87.14,11.2,11.2,0,0,0,6.25-1.86,12.43,12.43,0,0,0,1.62-1.26A5.84,5.84,0,0,0,71.63,63a9.44,9.44,0,0,0,1.52.13,13,13,0,0,0,7.58-2.6,2.76,2.76,0,0,0,.74-.88,8.11,8.11,0,0,0,3,1.42,13.4,13.4,0,0,0,3.08.35,16.91,16.91,0,0,0,1.71-.09,18.11,18.11,0,0,0,8.22-2.87,2.28,2.28,0,0,0,2.15,1.43l.41,0,1-.11.43-.05,1.11-.12,4-.46a2.36,2.36,0,0,0,2.14-2.1c0-.24.07-.47.1-.71l.06-.34.47-3.06q.6-3.93,1.19-7.87a4.94,4.94,0,0,1,.85-2.42,1.32,1.32,0,0,1,.68-.53,2.4,2.4,0,0,1,0,.38,28.22,28.22,0,0,1-.53,3.72l-.18,1a18.92,18.92,0,0,0-.39,5.27,6,6,0,0,0,4.28,5.24,11.42,11.42,0,0,0,2.61.32,8.62,8.62,0,0,0,5.83-2.19,6.2,6.2,0,0,0,2.05-4.44l.22-3.33-3.1,1.24a3.75,3.75,0,0,1-1,.25,25.36,25.36,0,0,1,.51-3c.09-.47.19-.94.28-1.41a20.57,20.57,0,0,0,.48-5.52,5.65,5.65,0,0,0-4.61-5.47,12,12,0,0,0-2.68-.32,10.39,10.39,0,0,0-3.72.68c.26-1.68.51-3.35.77-5a2.44,2.44,0,0,0-.46-2.1,2.2,2.2,0,0,0-1.69-.76ZM21.25,46.75l0-.25c.24-1.62.49-3.25.74-4.88a1.1,1.1,0,0,0,0-.18,1.77,1.77,0,0,1,1.27,2.46,5.43,5.43,0,0,1-2.07,2.85Zm69.83,6.8h-.21c-.41,0-.54,0-.61-.65a14.52,14.52,0,0,1,.29-4.76,12.2,12.2,0,0,1,2-4.72,2.35,2.35,0,0,0,.54,2.29,3,3,0,0,0,2.1.89h.13a4.89,4.89,0,0,0,.66,0,5,5,0,0,0,3.21-1.15l-.35,2.23-.57,3.71-1.17.15a2.9,2.9,0,0,0-1.41.62l0,0a8.22,8.22,0,0,1-4.67,1.35ZM9.27,51a1.12,1.12,0,0,1-.18-.41,6,6,0,0,1,0-2.8,5.76,5.76,0,0,1,1-2.23L10,46l-.14.91-.33,2.14L9.27,51ZM64,56.21l0,0a2.89,2.89,0,0,1-.22-1.26,11.67,11.67,0,0,1,2-7.46,5.26,5.26,0,0,1,1-1.1,1.61,1.61,0,0,1,.71-.31l-.42,2.73c-.27,1.76-.54,3.59-.84,5.38A2.42,2.42,0,0,1,64,56.21ZM45.88,50.37a10.75,10.75,0,0,1,.87-1.56l.16-.24a4,4,0,0,1-.77,1.49l-.26.31ZM20.19,53.7a8.5,8.5,0,0,1,1.18-.13h.17c1.34,0,1.75.45,2,1.23a6.86,6.86,0,0,1-.22,5.43,2.17,2.17,0,0,1-2,1.3,2.64,2.64,0,0,1-.55-.06A4.34,4.34,0,0,1,19.66,61a2.25,2.25,0,0,0-.55-.28l.18-1.15.28-1.78c.21-1.35.42-2.7.62-4Zm24.38,4.36a16.84,16.84,0,0,0,7.68-4.25,17.52,17.52,0,0,0,0,2.9,2,2,0,0,0-.35,0,2.54,2.54,0,0,0-1.53.56,8.25,8.25,0,0,1-5.1,1.59h0a1.76,1.76,0,0,1-.47,0,2.2,2.2,0,0,1-.17-.53c0-.07,0-.13,0-.19Z"/></g><path class="cls-1" d="M11.43,44.26,9.54,53.05a4.11,4.11,0,0,1-1.35-5.21C9.74,44.6,11.43,44.26,11.43,44.26Z"/></g></g></g></svg>