<svg width="368" height="808" viewBox="0 0 368 808" fill="none" xmlns="http://www.w3.org/2000/svg">
<g clip-path="url(#clip0_6_512)" filter="url(#filter0_d_6_512)">
<rect width="360" height="800" transform="translate(4)" fill="white"/>
<rect x="4" width="360" height="800" fill="#00B8DE"/>
<mask id="mask0_6_512" style="mask-type:alpha" maskUnits="userSpaceOnUse" x="-35" y="-19" width="498" height="847">
<rect x="-35" y="-19" width="498" height="847" fill="#D9D9D9"/>
</mask>
<g mask="url(#mask0_6_512)">
</g>
<mask id="mask1_6_512" style="mask-type:alpha" maskUnits="userSpaceOnUse" x="-35" y="-19" width="498" height="847">
<rect x="-35" y="-19" width="498" height="847" fill="#D9D9D9"/>
</mask>
<g mask="url(#mask1_6_512)">
</g>
<rect width="360" height="44" transform="translate(4)" fill="#00B8DE" fill-opacity="0.6"/>
<path d="M30.0781 27.7012H30.2148C30.8438 27.7012 31.3678 27.6191 31.7871 27.4551C32.2109 27.2865 32.5482 27.054 32.7988 26.7578C33.0495 26.4616 33.2295 26.113 33.3389 25.7119C33.4482 25.3109 33.5029 24.8757 33.5029 24.4062V22.6904C33.5029 22.2848 33.4596 21.9294 33.373 21.624C33.291 21.3141 33.1725 21.0566 33.0176 20.8516C32.8672 20.6419 32.6917 20.4847 32.4912 20.3799C32.2952 20.2751 32.0833 20.2227 31.8555 20.2227C31.6048 20.2227 31.3792 20.2796 31.1787 20.3936C30.9827 20.5029 30.8164 20.6556 30.6797 20.8516C30.5475 21.043 30.445 21.2686 30.3721 21.5283C30.3037 21.7835 30.2695 22.057 30.2695 22.3486C30.2695 22.6221 30.3014 22.8864 30.3652 23.1416C30.4336 23.3923 30.5339 23.6156 30.666 23.8115C30.7982 24.0075 30.9645 24.1624 31.165 24.2764C31.3656 24.3903 31.6003 24.4473 31.8691 24.4473C32.1243 24.4473 32.359 24.3994 32.5732 24.3037C32.7874 24.2035 32.9743 24.069 33.1338 23.9004C33.2933 23.7318 33.4186 23.5426 33.5098 23.333C33.6009 23.1234 33.651 22.9092 33.6602 22.6904L34.2891 22.8818C34.2891 23.2282 34.2161 23.57 34.0703 23.9072C33.929 24.2399 33.7308 24.5452 33.4756 24.8232C33.2249 25.0967 32.931 25.3154 32.5938 25.4795C32.2611 25.6436 31.8988 25.7256 31.5068 25.7256C31.0329 25.7256 30.6136 25.6367 30.249 25.459C29.889 25.2767 29.5882 25.0306 29.3467 24.7207C29.1097 24.4108 28.932 24.0553 28.8135 23.6543C28.695 23.2533 28.6357 22.8317 28.6357 22.3896C28.6357 21.9111 28.7087 21.4622 28.8545 21.043C29.0003 20.6237 29.2122 20.2546 29.4902 19.9355C29.7682 19.612 30.1055 19.3613 30.502 19.1836C30.903 19.0013 31.3564 18.9102 31.8623 18.9102C32.4001 18.9102 32.8717 19.015 33.2773 19.2246C33.6829 19.4342 34.0247 19.7236 34.3027 20.0928C34.5807 20.4619 34.7904 20.8903 34.9316 21.3779C35.0729 21.8656 35.1436 22.3896 35.1436 22.9502V23.5312C35.1436 24.1191 35.0911 24.6865 34.9863 25.2334C34.8815 25.7757 34.7106 26.2793 34.4736 26.7441C34.2412 27.2044 33.9336 27.61 33.5508 27.9609C33.1725 28.3073 32.7077 28.5785 32.1562 28.7744C31.6094 28.9658 30.9668 29.0615 30.2285 29.0615H30.0781V27.7012ZM37.1019 28.1797C37.1019 27.9245 37.1885 27.7103 37.3617 27.5371C37.5349 27.3594 37.7696 27.2705 38.0658 27.2705C38.3666 27.2705 38.6013 27.3594 38.7699 27.5371C38.9431 27.7103 39.0296 27.9245 39.0296 28.1797C39.0296 28.4349 38.9431 28.6491 38.7699 28.8223C38.6013 28.9954 38.3666 29.082 38.0658 29.082C37.7696 29.082 37.5349 28.9954 37.3617 28.8223C37.1885 28.6491 37.1019 28.4349 37.1019 28.1797ZM37.1088 22.3555C37.1088 22.1003 37.1953 21.8861 37.3685 21.7129C37.5417 21.5352 37.7764 21.4463 38.0726 21.4463C38.3734 21.4463 38.6081 21.5352 38.7767 21.7129C38.9499 21.8861 39.0365 22.1003 39.0365 22.3555C39.0365 22.6107 38.9499 22.8249 38.7767 22.998C38.6081 23.1712 38.3734 23.2578 38.0726 23.2578C37.7764 23.2578 37.5417 23.1712 37.3685 22.998C37.1953 22.8249 37.1088 22.6107 37.1088 22.3555ZM42.7517 23.2783H43.7361C44.1189 23.2783 44.4356 23.2122 44.6862 23.0801C44.9415 22.9479 45.1306 22.7656 45.2536 22.5332C45.3767 22.3008 45.4382 22.0342 45.4382 21.7334C45.4382 21.4189 45.3812 21.1501 45.2673 20.9268C45.1579 20.6989 44.9893 20.5234 44.7614 20.4004C44.5381 20.2773 44.2533 20.2158 43.907 20.2158C43.6153 20.2158 43.351 20.2751 43.114 20.3936C42.8816 20.5075 42.697 20.6715 42.5603 20.8857C42.4236 21.0954 42.3552 21.346 42.3552 21.6377H40.7009C40.7009 21.109 40.8399 20.6396 41.1179 20.2295C41.3959 19.8193 41.7741 19.498 42.2527 19.2656C42.7357 19.0286 43.278 18.9102 43.8796 18.9102C44.5222 18.9102 45.0827 19.0173 45.5612 19.2314C46.0443 19.4411 46.4203 19.7555 46.6892 20.1748C46.9581 20.5941 47.0925 21.1136 47.0925 21.7334C47.0925 22.016 47.0264 22.3031 46.8943 22.5947C46.7621 22.8864 46.5661 23.153 46.3064 23.3945C46.0466 23.6315 45.723 23.8252 45.3357 23.9756C44.9483 24.1214 44.4994 24.1943 43.989 24.1943H42.7517V23.2783ZM42.7517 24.5635V23.6611H43.989C44.5723 23.6611 45.0691 23.7295 45.4792 23.8662C45.8939 24.0029 46.2312 24.1921 46.4909 24.4336C46.7507 24.6706 46.9398 24.9417 47.0583 25.2471C47.1814 25.5524 47.2429 25.876 47.2429 26.2178C47.2429 26.6826 47.1586 27.0973 46.99 27.4619C46.8259 27.8219 46.5912 28.1273 46.2859 28.3779C45.9805 28.6286 45.6228 28.8177 45.2126 28.9453C44.807 29.0729 44.365 29.1367 43.8864 29.1367C43.4581 29.1367 43.0479 29.0775 42.656 28.959C42.264 28.8405 41.9131 28.665 41.6032 28.4326C41.2933 28.1956 41.0473 27.9017 40.865 27.5508C40.6872 27.1953 40.5984 26.7852 40.5984 26.3203H42.2458C42.2458 26.6165 42.3142 26.8786 42.4509 27.1064C42.5922 27.3298 42.7881 27.5052 43.0388 27.6328C43.294 27.7604 43.5857 27.8242 43.9138 27.8242C44.2601 27.8242 44.5586 27.7627 44.8093 27.6396C45.0599 27.5166 45.2514 27.3343 45.3835 27.0928C45.5202 26.8512 45.5886 26.5596 45.5886 26.2178C45.5886 25.8304 45.5134 25.516 45.363 25.2744C45.2126 25.0329 44.9984 24.8551 44.7204 24.7412C44.4424 24.6227 44.1143 24.5635 43.7361 24.5635H42.7517ZM55.5382 23.1895V24.8164C55.5382 25.5957 55.4607 26.2611 55.3057 26.8125C55.1554 27.3594 54.9366 27.8037 54.6495 28.1455C54.3624 28.4873 54.0183 28.738 53.6173 28.8975C53.2208 29.057 52.7764 29.1367 52.2843 29.1367C51.8923 29.1367 51.5277 29.0866 51.1905 28.9863C50.8578 28.8861 50.557 28.7288 50.2882 28.5146C50.0193 28.3005 49.7891 28.0247 49.5977 27.6875C49.4109 27.3457 49.2651 26.9378 49.1602 26.4639C49.06 25.9899 49.0098 25.4408 49.0098 24.8164V23.1895C49.0098 22.4056 49.0873 21.7448 49.2423 21.207C49.3972 20.6647 49.6182 20.2249 49.9054 19.8877C50.1925 19.5459 50.5343 19.2975 50.9307 19.1426C51.3318 18.9876 51.7784 18.9102 52.2706 18.9102C52.6671 18.9102 53.0317 18.9603 53.3643 19.0605C53.7016 19.1562 54.0024 19.3089 54.2667 19.5186C54.5356 19.7282 54.7634 20.0016 54.9503 20.3389C55.1417 20.6715 55.2875 21.0749 55.3878 21.5488C55.488 22.0182 55.5382 22.5651 55.5382 23.1895ZM53.8907 25.0488V22.9434C53.8907 22.5469 53.8679 22.1982 53.8223 21.8975C53.7768 21.5921 53.7084 21.3346 53.6173 21.125C53.5307 20.9108 53.4213 20.7376 53.2891 20.6055C53.157 20.4688 53.0066 20.3708 52.838 20.3115C52.6693 20.2477 52.4802 20.2158 52.2706 20.2158C52.0154 20.2158 51.7875 20.266 51.587 20.3662C51.3865 20.4619 51.2179 20.6169 51.0811 20.8311C50.9444 21.0452 50.8396 21.3278 50.7667 21.6787C50.6983 22.0251 50.6641 22.4466 50.6641 22.9434V25.0488C50.6641 25.4499 50.6869 25.8031 50.7325 26.1084C50.7781 26.4137 50.8464 26.6758 50.9376 26.8945C51.0287 27.1087 51.1381 27.2865 51.2657 27.4277C51.3979 27.5645 51.5483 27.6647 51.7169 27.7285C51.8901 27.7923 52.0792 27.8242 52.2843 27.8242C52.544 27.8242 52.7742 27.7741 52.9747 27.6738C53.1752 27.5736 53.3438 27.4141 53.4805 27.1953C53.6173 26.972 53.7198 26.6826 53.7882 26.3271C53.8565 25.9717 53.8907 25.5456 53.8907 25.0488Z" fill="#333333"/>
<path d="M302.5 18.4141C299.1 18.4141 296.125 19.9016 294 22.2391L302.5 32.5807L311 22.2391C308.875 19.9016 305.9 18.4141 302.5 18.4141Z" fill="#313033"/>
<path d="M325.581 18.4141L311.414 32.5807H325.581V18.4141Z" fill="#313033"/>
<path d="M337.5 18H334.5V19.5H333C332.448 19.5 332 20.0037 332 20.625V31.875C332 32.4963 332.448 33 333 33H339C339.552 33 340 32.4963 340 31.875V20.625C340 20.0037 339.552 19.5 339 19.5H337.5V18Z" fill="white"/>
<path d="M332 26C332 26.5833 332 31.3667 332 31.95C332 32.5299 332.448 33 333 33H339C339.552 33 340 32.5299 340 31.95C340 31.3667 340 26.5833 340 26H332Z" fill="#313033"/>
<rect x="-130" y="568.312" width="603.645" height="482.923" transform="rotate(-28.0989 -130 568.312)" fill="#FFB600"/>
<rect x="21" y="284" width="327" height="50" rx="10" fill="white"/>
<path d="M38.26 313V303.2H39.982V311.432H45.134V313H38.26ZM54.3213 309.304C54.3213 309.836 54.2186 310.335 54.0132 310.802C53.8173 311.269 53.5419 311.679 53.1873 312.034C52.8419 312.379 52.4266 312.655 51.9413 312.86C51.4559 313.065 50.9286 313.168 50.3593 313.168C49.7993 313.168 49.2766 313.07 48.7913 312.874C48.3153 312.669 47.8999 312.393 47.5453 312.048C47.1999 311.693 46.9293 311.287 46.7333 310.83C46.5373 310.363 46.4393 309.864 46.4393 309.332C46.4393 308.8 46.5373 308.301 46.7333 307.834C46.9386 307.358 47.2139 306.947 47.5593 306.602C47.9139 306.247 48.3293 305.967 48.8053 305.762C49.2906 305.557 49.8179 305.454 50.3873 305.454C50.9566 305.454 51.4793 305.557 51.9553 305.762C52.4406 305.958 52.8559 306.233 53.2013 306.588C53.5559 306.933 53.8313 307.339 54.0273 307.806C54.2233 308.273 54.3213 308.772 54.3213 309.304ZM52.6273 309.332C52.6273 309.005 52.5713 308.697 52.4593 308.408C52.3473 308.119 52.1886 307.867 51.9833 307.652C51.7873 307.428 51.5493 307.255 51.2693 307.134C50.9986 307.003 50.6953 306.938 50.3593 306.938C50.0233 306.938 49.7153 307.003 49.4353 307.134C49.1646 307.255 48.9313 307.423 48.7353 307.638C48.5393 307.853 48.3899 308.105 48.2873 308.394C48.1846 308.674 48.1333 308.977 48.1333 309.304C48.1333 309.631 48.1893 309.943 48.3013 310.242C48.4133 310.531 48.5673 310.783 48.7633 310.998C48.9686 311.213 49.2066 311.385 49.4772 311.516C49.7572 311.637 50.0606 311.698 50.3873 311.698C50.7326 311.698 51.0406 311.637 51.3113 311.516C51.5913 311.385 51.8293 311.213 52.0253 310.998C52.2213 310.783 52.3706 310.536 52.4733 310.256C52.5759 309.967 52.6273 309.659 52.6273 309.332ZM63.5624 311.488C63.5624 312.795 63.2171 313.751 62.5264 314.358C61.8358 314.965 60.8558 315.268 59.5864 315.268C58.3544 315.268 57.2531 314.974 56.2824 314.386L56.9124 313.112C57.3044 313.355 57.7151 313.546 58.1444 313.686C58.5738 313.826 59.0404 313.896 59.5444 313.896C60.3004 313.896 60.8791 313.705 61.2804 313.322C61.6818 312.939 61.8824 312.375 61.8824 311.628V311.054C61.5744 311.455 61.2151 311.782 60.8044 312.034C60.3938 312.286 59.8851 312.412 59.2784 312.412C58.8398 312.412 58.4198 312.337 58.0184 312.188C57.6171 312.029 57.2578 311.801 56.9404 311.502C56.6324 311.203 56.3851 310.839 56.1984 310.41C56.0118 309.981 55.9184 309.491 55.9184 308.94C55.9184 308.389 56.0118 307.899 56.1984 307.47C56.3851 307.041 56.6324 306.677 56.9404 306.378C57.2578 306.079 57.6171 305.851 58.0184 305.692C58.4291 305.533 58.8491 305.454 59.2784 305.454C59.9038 305.454 60.4171 305.58 60.8184 305.832C61.2291 306.075 61.5791 306.369 61.8684 306.714V305.608H63.5624V311.488ZM61.8964 308.94C61.8964 308.632 61.8358 308.352 61.7144 308.1C61.6024 307.839 61.4484 307.619 61.2524 307.442C61.0564 307.265 60.8231 307.129 60.5524 307.036C60.2911 306.933 60.0158 306.882 59.7264 306.882C59.4278 306.882 59.1524 306.933 58.9004 307.036C58.6484 307.129 58.4244 307.265 58.2284 307.442C58.0418 307.619 57.8924 307.834 57.7804 308.086C57.6778 308.338 57.6264 308.618 57.6264 308.926C57.6264 309.234 57.6824 309.514 57.7944 309.766C57.9064 310.018 58.0558 310.237 58.2424 310.424C58.4291 310.601 58.6484 310.741 58.9004 310.844C59.1618 310.937 59.4371 310.984 59.7264 310.984C60.0158 310.984 60.2911 310.937 60.5524 310.844C60.8231 310.741 61.0564 310.601 61.2524 310.424C61.4484 310.237 61.6024 310.023 61.7144 309.78C61.8358 309.528 61.8964 309.248 61.8964 308.94ZM67.7733 304.474H65.9533V302.864H67.7733V304.474ZM67.7173 313H66.0233V305.608H67.7173V313ZM71.8752 308.828V313H70.1812V305.608H71.8752V306.756C71.9965 306.579 72.1272 306.415 72.2672 306.266C72.4165 306.107 72.5845 305.967 72.7712 305.846C72.9672 305.725 73.1772 305.631 73.4012 305.566C73.6345 305.491 73.8959 305.454 74.1852 305.454C75.0252 305.454 75.6739 305.711 76.1312 306.224C76.5885 306.737 76.8172 307.428 76.8172 308.296V313H75.1232V308.8C75.1232 308.221 74.9832 307.778 74.7032 307.47C74.4325 307.153 74.0452 306.994 73.5412 306.994C73.0465 306.994 72.6452 307.157 72.3372 307.484C72.0292 307.801 71.8752 308.249 71.8752 308.828Z" fill="#1C1B1F"/>
<rect x="21" y="342" width="327" height="50" rx="10" fill="white"/>
<path d="M45.848 364.49C45.848 365.041 45.7453 365.526 45.54 365.946C45.3347 366.366 45.0547 366.716 44.7 366.996C44.3453 367.276 43.93 367.491 43.454 367.64C42.978 367.78 42.4693 367.85 41.928 367.85H39.982V371H38.26V361.2H42.124C42.6933 361.2 43.2067 361.279 43.664 361.438C44.1307 361.587 44.5227 361.807 44.84 362.096C45.1667 362.385 45.414 362.731 45.582 363.132C45.7593 363.533 45.848 363.986 45.848 364.49ZM44.098 364.532C44.098 363.944 43.9067 363.505 43.524 363.216C43.1413 362.917 42.628 362.768 41.984 362.768H39.982V366.296H41.984C42.6373 366.296 43.1507 366.137 43.524 365.82C43.9067 365.493 44.098 365.064 44.098 364.532ZM53.7308 371H52.0508V370.09C51.7988 370.389 51.4768 370.641 51.0848 370.846C50.6928 371.051 50.2168 371.154 49.6568 371.154C49.3022 371.154 48.9662 371.103 48.6488 371C48.3315 370.907 48.0515 370.767 47.8088 370.58C47.5755 370.384 47.3842 370.146 47.2348 369.866C47.0948 369.577 47.0248 369.245 47.0248 368.872V368.844C47.0248 368.443 47.0995 368.093 47.2488 367.794C47.3982 367.495 47.6035 367.248 47.8648 367.052C48.1355 366.856 48.4528 366.711 48.8168 366.618C49.1902 366.515 49.5915 366.464 50.0208 366.464C50.4688 366.464 50.8468 366.492 51.1548 366.548C51.4722 366.604 51.7755 366.679 52.0648 366.772V366.59C52.0648 366.077 51.9062 365.685 51.5888 365.414C51.2808 365.143 50.8328 365.008 50.2448 365.008C49.8248 365.008 49.4515 365.05 49.1248 365.134C48.7982 365.218 48.4668 365.33 48.1308 365.47L47.6688 364.112C48.0795 363.925 48.4995 363.776 48.9288 363.664C49.3582 363.552 49.8762 363.496 50.4828 363.496C51.5842 363.496 52.4008 363.771 52.9328 364.322C53.4648 364.863 53.7308 365.629 53.7308 366.618V371ZM52.0928 368.326V367.864C51.8782 367.78 51.6215 367.71 51.3228 367.654C51.0335 367.598 50.7255 367.57 50.3988 367.57C49.8668 367.57 49.4515 367.673 49.1528 367.878C48.8542 368.083 48.7048 368.377 48.7048 368.76V368.788C48.7048 369.143 48.8402 369.413 49.1108 369.6C49.3908 369.787 49.7315 369.88 50.1328 369.88C50.4128 369.88 50.6695 369.843 50.9028 369.768C51.1455 369.693 51.3555 369.591 51.5328 369.46C51.7102 369.32 51.8455 369.157 51.9388 368.97C52.0415 368.774 52.0928 368.559 52.0928 368.326ZM61.2736 368.816C61.2736 369.208 61.2036 369.549 61.0636 369.838C60.9236 370.127 60.7276 370.37 60.4756 370.566C60.233 370.753 59.9436 370.897 59.6076 371C59.2716 371.093 58.9123 371.14 58.5296 371.14C57.9976 371.14 57.4563 371.047 56.9056 370.86C56.3643 370.673 55.8603 370.398 55.3936 370.034L56.1496 368.886C56.551 369.185 56.957 369.413 57.3676 369.572C57.7876 369.721 58.189 369.796 58.5716 369.796C58.9356 369.796 59.2156 369.726 59.4116 369.586C59.617 369.437 59.7196 369.241 59.7196 368.998V368.97C59.7196 368.83 59.673 368.709 59.5796 368.606C59.4956 368.503 59.3743 368.415 59.2156 368.34C59.0663 368.256 58.889 368.186 58.6836 368.13C58.4876 368.065 58.2823 367.999 58.0676 367.934C57.797 367.85 57.5216 367.757 57.2416 367.654C56.971 367.551 56.7236 367.421 56.4996 367.262C56.285 367.094 56.1076 366.893 55.9676 366.66C55.8276 366.417 55.7576 366.119 55.7576 365.764V365.736C55.7576 365.391 55.823 365.078 55.9536 364.798C56.0936 364.518 56.2803 364.28 56.5136 364.084C56.7563 363.888 57.0363 363.739 57.3536 363.636C57.6803 363.533 58.0256 363.482 58.3896 363.482C58.8563 363.482 59.3276 363.557 59.8036 363.706C60.2796 363.855 60.7136 364.061 61.1056 364.322L60.4336 365.526C60.079 365.311 59.7196 365.143 59.3556 365.022C58.9916 364.891 58.6556 364.826 58.3476 364.826C58.021 364.826 57.7643 364.896 57.5776 365.036C57.4003 365.176 57.3116 365.353 57.3116 365.568V365.596C57.3116 365.727 57.3583 365.843 57.4516 365.946C57.545 366.039 57.6663 366.128 57.8156 366.212C57.9743 366.287 58.1516 366.361 58.3476 366.436C58.553 366.501 58.763 366.567 58.9776 366.632C59.2483 366.716 59.519 366.814 59.7896 366.926C60.0603 367.038 60.303 367.178 60.5176 367.346C60.7416 367.505 60.9236 367.701 61.0636 367.934C61.2036 368.167 61.2736 368.452 61.2736 368.788V368.816ZM68.3869 368.816C68.3869 369.208 68.3169 369.549 68.1769 369.838C68.0369 370.127 67.8409 370.37 67.5889 370.566C67.3463 370.753 67.0569 370.897 66.7209 371C66.3849 371.093 66.0256 371.14 65.6429 371.14C65.1109 371.14 64.5696 371.047 64.0189 370.86C63.4776 370.673 62.9736 370.398 62.5069 370.034L63.2629 368.886C63.6643 369.185 64.0703 369.413 64.4809 369.572C64.9009 369.721 65.3023 369.796 65.6849 369.796C66.0489 369.796 66.3289 369.726 66.5249 369.586C66.7303 369.437 66.8329 369.241 66.8329 368.998V368.97C66.8329 368.83 66.7863 368.709 66.6929 368.606C66.6089 368.503 66.4876 368.415 66.3289 368.34C66.1796 368.256 66.0023 368.186 65.7969 368.13C65.6009 368.065 65.3956 367.999 65.1809 367.934C64.9103 367.85 64.6349 367.757 64.3549 367.654C64.0843 367.551 63.8369 367.421 63.6129 367.262C63.3983 367.094 63.2209 366.893 63.0809 366.66C62.9409 366.417 62.8709 366.119 62.8709 365.764V365.736C62.8709 365.391 62.9363 365.078 63.0669 364.798C63.2069 364.518 63.3936 364.28 63.6269 364.084C63.8696 363.888 64.1496 363.739 64.4669 363.636C64.7936 363.533 65.1389 363.482 65.5029 363.482C65.9696 363.482 66.4409 363.557 66.9169 363.706C67.3929 363.855 67.8269 364.061 68.2189 364.322L67.5469 365.526C67.1923 365.311 66.8329 365.143 66.4689 365.022C66.1049 364.891 65.7689 364.826 65.4609 364.826C65.1343 364.826 64.8776 364.896 64.6909 365.036C64.5136 365.176 64.4249 365.353 64.4249 365.568V365.596C64.4249 365.727 64.4716 365.843 64.5649 365.946C64.6583 366.039 64.7796 366.128 64.9289 366.212C65.0876 366.287 65.2649 366.361 65.4609 366.436C65.6663 366.501 65.8763 366.567 66.0909 366.632C66.3616 366.716 66.6323 366.814 66.9029 366.926C67.1736 367.038 67.4163 367.178 67.6309 367.346C67.8549 367.505 68.0369 367.701 68.1769 367.934C68.3169 368.167 68.3869 368.452 68.3869 368.788V368.816ZM75.8378 363.58L77.4898 368.676L79.0018 363.608H80.6958L78.2738 371.056H76.7618L75.1098 366.002L73.4438 371.056H71.9318L69.5378 363.608H71.2738L72.7578 368.676L74.3958 363.58H75.8378ZM89.583 367.304C89.583 367.836 89.4803 368.335 89.275 368.802C89.079 369.269 88.8036 369.679 88.449 370.034C88.1036 370.379 87.6883 370.655 87.203 370.86C86.7176 371.065 86.1903 371.168 85.621 371.168C85.061 371.168 84.5383 371.07 84.053 370.874C83.577 370.669 83.1616 370.393 82.807 370.048C82.4616 369.693 82.191 369.287 81.995 368.83C81.799 368.363 81.701 367.864 81.701 367.332C81.701 366.8 81.799 366.301 81.995 365.834C82.2003 365.358 82.4756 364.947 82.821 364.602C83.1756 364.247 83.591 363.967 84.067 363.762C84.5523 363.557 85.0796 363.454 85.649 363.454C86.2183 363.454 86.741 363.557 87.217 363.762C87.7023 363.958 88.1176 364.233 88.463 364.588C88.8176 364.933 89.093 365.339 89.289 365.806C89.485 366.273 89.583 366.772 89.583 367.304ZM87.889 367.332C87.889 367.005 87.833 366.697 87.721 366.408C87.609 366.119 87.4503 365.867 87.245 365.652C87.049 365.428 86.811 365.255 86.531 365.134C86.2603 365.003 85.957 364.938 85.621 364.938C85.285 364.938 84.977 365.003 84.697 365.134C84.4263 365.255 84.193 365.423 83.997 365.638C83.801 365.853 83.6516 366.105 83.549 366.394C83.4463 366.674 83.395 366.977 83.395 367.304C83.395 367.631 83.451 367.943 83.563 368.242C83.675 368.531 83.829 368.783 84.025 368.998C84.2303 369.213 84.4683 369.385 84.739 369.516C85.019 369.637 85.3223 369.698 85.649 369.698C85.9943 369.698 86.3023 369.637 86.573 369.516C86.853 369.385 87.091 369.213 87.287 368.998C87.483 368.783 87.6323 368.536 87.735 368.256C87.8376 367.967 87.889 367.659 87.889 367.332ZM93.2521 368.186V371H91.5581V363.608H93.2521V365.274C93.4855 364.714 93.8168 364.266 94.2461 363.93C94.6755 363.594 95.2168 363.44 95.8701 363.468V365.26H95.7721C95.3988 365.26 95.0581 365.321 94.7501 365.442C94.4421 365.563 94.1761 365.745 93.9521 365.988C93.7281 366.231 93.5555 366.539 93.4341 366.912C93.3128 367.276 93.2521 367.701 93.2521 368.186ZM104.652 371H102.958V369.768C102.688 370.151 102.347 370.477 101.936 370.748C101.535 371.019 101.036 371.154 100.438 371.154C99.9996 371.154 99.5749 371.07 99.1643 370.902C98.7536 370.734 98.3896 370.487 98.0723 370.16C97.7549 369.824 97.4983 369.418 97.3023 368.942C97.1063 368.466 97.0083 367.92 97.0083 367.304C97.0083 366.688 97.1016 366.142 97.2883 365.666C97.4843 365.19 97.7409 364.789 98.0583 364.462C98.3756 364.126 98.7396 363.874 99.1503 363.706C99.5703 363.538 99.9996 363.454 100.438 363.454C101.045 363.454 101.549 363.585 101.95 363.846C102.352 364.107 102.688 364.411 102.958 364.756V360.78H104.652V371ZM102.986 367.304C102.986 366.94 102.926 366.613 102.804 366.324C102.692 366.035 102.538 365.787 102.342 365.582C102.146 365.367 101.918 365.204 101.656 365.092C101.395 364.98 101.124 364.924 100.844 364.924C100.555 364.924 100.28 364.98 100.018 365.092C99.7663 365.195 99.5423 365.349 99.3463 365.554C99.1503 365.759 98.9963 366.011 98.8843 366.31C98.7723 366.599 98.7163 366.931 98.7163 367.304C98.7163 367.668 98.7723 367.999 98.8843 368.298C98.9963 368.587 99.1503 368.835 99.3463 369.04C99.5423 369.245 99.7663 369.404 100.018 369.516C100.28 369.628 100.555 369.684 100.844 369.684C101.124 369.684 101.395 369.628 101.656 369.516C101.918 369.404 102.146 369.245 102.342 369.04C102.538 368.825 102.692 368.573 102.804 368.284C102.926 367.995 102.986 367.668 102.986 367.304Z" fill="#1C1B1F"/>
<path d="M312 361.5C315.79 361.5 319.17 363.63 320.82 367C319.17 370.37 315.79 372.5 312 372.5C308.21 372.5 304.83 370.37 303.18 367C304.83 363.63 308.21 361.5 312 361.5ZM312 359.5C307 359.5 302.73 362.61 301 367C302.73 371.39 307 374.5 312 374.5C317 374.5 321.27 371.39 323 367C321.27 362.61 317 359.5 312 359.5ZM312 364.5C313.38 364.5 314.5 365.62 314.5 367C314.5 368.38 313.38 369.5 312 369.5C310.62 369.5 309.5 368.38 309.5 367C309.5 365.62 310.62 364.5 312 364.5ZM312 362.5C309.52 362.5 307.5 364.52 307.5 367C307.5 369.48 309.52 371.5 312 371.5C314.48 371.5 316.5 369.48 316.5 367C316.5 364.52 314.48 362.5 312 362.5Z" fill="#333333"/>
<rect x="140" y="408" width="89" height="40" rx="10" fill="#333333"/>
<path d="M165.654 432H172.528V430.432H167.376V422.2H165.654V432ZM177.603 432.168C179.885 432.168 181.565 430.418 181.565 428.318V428.29C181.565 426.176 179.899 424.454 177.631 424.454C175.363 424.454 173.683 426.204 173.683 428.318V428.346C173.683 430.446 175.349 432.168 177.603 432.168ZM177.631 430.684C176.315 430.684 175.377 429.606 175.377 428.318V428.29C175.377 427.002 176.245 425.938 177.603 425.938C178.933 425.938 179.871 427.016 179.871 428.318V428.346C179.871 429.62 179.003 430.684 177.631 430.684ZM186.68 434.268C188.01 434.268 189.046 433.946 189.718 433.274C190.334 432.658 190.656 431.734 190.656 430.488V424.608H188.962V425.714C188.388 425.028 187.618 424.454 186.372 424.454C184.65 424.454 183.012 425.742 183.012 427.926V427.954C183.012 430.124 184.636 431.412 186.372 431.412C187.59 431.412 188.36 430.852 188.976 430.054V430.628C188.976 432.112 188.15 432.896 186.638 432.896C185.63 432.896 184.804 432.602 184.006 432.112L183.376 433.386C184.328 433.96 185.462 434.268 186.68 434.268ZM186.82 429.97C185.658 429.97 184.72 429.144 184.72 427.94V427.912C184.72 426.694 185.644 425.882 186.82 425.882C187.996 425.882 188.99 426.708 188.99 427.912V427.94C188.99 429.144 187.996 429.97 186.82 429.97ZM192.911 423.474H194.731V421.864H192.911V423.474ZM192.981 432H194.675V424.608H192.981V432ZM196.989 432H198.683V427.828C198.683 426.68 199.369 425.994 200.349 425.994C201.357 425.994 201.931 426.652 201.931 427.8V432H203.625V427.282C203.625 425.574 202.659 424.454 200.993 424.454C199.845 424.454 199.159 425.056 198.683 425.742V424.608H196.989V432Z" fill="white"/>
<rect x="134" y="638" width="102" height="40" rx="10" fill="white"/>
<rect x="134" y="638" width="102" height="40" rx="10" stroke="#FCFCFC"/>
<path d="M162.737 662.14C164.795 662.14 166.237 661.048 166.237 659.214V659.186C166.237 657.562 165.173 656.82 163.101 656.316C161.211 655.868 160.763 655.532 160.763 654.776V654.748C160.763 654.104 161.351 653.586 162.359 653.586C163.255 653.586 164.137 653.936 165.019 654.594L165.943 653.292C164.949 652.494 163.815 652.06 162.387 652.06C160.441 652.06 159.041 653.222 159.041 654.902V654.93C159.041 656.736 160.217 657.352 162.303 657.856C164.123 658.276 164.515 658.654 164.515 659.354V659.382C164.515 660.11 163.843 660.614 162.779 660.614C161.575 660.614 160.623 660.152 159.685 659.34L158.649 660.572C159.825 661.622 161.239 662.14 162.737 662.14ZM168.194 653.474H170.014V651.864H168.194V653.474ZM168.264 662H169.958V654.608H168.264V662ZM175.562 664.268C176.892 664.268 177.928 663.946 178.6 663.274C179.216 662.658 179.538 661.734 179.538 660.488V654.608H177.844V655.714C177.27 655.028 176.5 654.454 175.254 654.454C173.532 654.454 171.894 655.742 171.894 657.926V657.954C171.894 660.124 173.518 661.412 175.254 661.412C176.472 661.412 177.242 660.852 177.858 660.054V660.628C177.858 662.112 177.032 662.896 175.52 662.896C174.512 662.896 173.686 662.602 172.888 662.112L172.258 663.386C173.21 663.96 174.344 664.268 175.562 664.268ZM175.702 659.97C174.54 659.97 173.602 659.144 173.602 657.94V657.912C173.602 656.694 174.526 655.882 175.702 655.882C176.878 655.882 177.872 656.708 177.872 657.912V657.94C177.872 659.144 176.878 659.97 175.702 659.97ZM181.764 662H183.458V657.828C183.458 656.68 184.144 655.994 185.124 655.994C186.132 655.994 186.706 656.652 186.706 657.8V662H188.4V657.282C188.4 655.574 187.434 654.454 185.768 654.454C184.62 654.454 183.934 655.056 183.458 655.742V654.608H181.764V662ZM197.391 662.154C198.539 662.154 199.225 661.552 199.701 660.852V662H201.409V654.608H199.701V658.78C199.701 659.928 199.015 660.6 198.035 660.6C197.027 660.6 196.453 659.956 196.453 658.808V654.608H194.759V659.312C194.759 661.034 195.725 662.154 197.391 662.154ZM203.625 664.24H205.319V660.852C205.837 661.538 206.607 662.154 207.839 662.154C209.589 662.154 211.269 660.768 211.269 658.318V658.29C211.269 655.826 209.575 654.454 207.839 654.454C206.635 654.454 205.865 655.07 205.319 655.84V654.608H203.625V664.24ZM207.433 660.684C206.285 660.684 205.277 659.732 205.277 658.318V658.29C205.277 656.876 206.285 655.924 207.433 655.924C208.581 655.924 209.547 656.862 209.547 658.29V658.318C209.547 659.774 208.595 660.684 207.433 660.684Z" fill="#313033"/>
<path d="M131.557 531.192C134.997 531.192 137.429 528.552 137.429 525.4V525.368C137.429 522.216 135.029 519.608 131.589 519.608C128.149 519.608 125.717 522.248 125.717 525.4V525.432C125.717 528.584 128.117 531.192 131.557 531.192ZM131.589 529.368C129.365 529.368 127.781 527.576 127.781 525.4V525.368C127.781 523.192 129.333 521.416 131.557 521.416C133.781 521.416 135.365 523.224 135.365 525.4V525.432C135.365 527.608 133.813 529.368 131.589 529.368ZM139.733 531H141.669V527.784C141.669 525.544 142.853 524.44 144.549 524.44H144.661V522.392C143.173 522.328 142.197 523.192 141.669 524.456V522.552H139.733V531ZM154.335 531.16C156.095 531.16 157.471 530.28 157.471 528.504V528.472C157.471 526.952 156.079 526.392 154.847 526.008C153.855 525.688 152.943 525.432 152.943 524.808V524.776C152.943 524.296 153.375 523.944 154.127 523.944C154.831 523.944 155.695 524.248 156.511 524.744L157.279 523.368C156.383 522.776 155.231 522.408 154.175 522.408C152.495 522.408 151.167 523.384 151.167 524.984V525.016C151.167 526.632 152.559 527.144 153.807 527.496C154.799 527.8 155.695 528.024 155.695 528.68V528.712C155.695 529.272 155.215 529.624 154.383 529.624C153.519 529.624 152.543 529.272 151.615 528.584L150.751 529.896C151.807 530.728 153.135 531.16 154.335 531.16ZM159.637 521.256H161.717V519.416H159.637V521.256ZM159.717 531H161.653V522.552H159.717V531ZM168.093 533.592C169.613 533.592 170.797 533.224 171.565 532.456C172.269 531.752 172.637 530.696 172.637 529.272V522.552H170.701V523.816C170.045 523.032 169.165 522.376 167.741 522.376C165.773 522.376 163.901 523.848 163.901 526.344V526.376C163.901 528.856 165.757 530.328 167.741 530.328C169.133 530.328 170.013 529.688 170.717 528.776V529.432C170.717 531.128 169.773 532.024 168.045 532.024C166.893 532.024 165.949 531.688 165.037 531.128L164.317 532.584C165.405 533.24 166.701 533.592 168.093 533.592ZM168.253 528.68C166.925 528.68 165.853 527.736 165.853 526.36V526.328C165.853 524.936 166.909 524.008 168.253 524.008C169.597 524.008 170.733 524.952 170.733 526.328V526.36C170.733 527.736 169.597 528.68 168.253 528.68ZM175.218 531H177.154V526.232C177.154 524.92 177.938 524.136 179.058 524.136C180.21 524.136 180.866 524.888 180.866 526.2V531H182.802V525.608C182.802 523.656 181.698 522.376 179.794 522.376C178.482 522.376 177.698 523.064 177.154 523.848V522.552H175.218V531ZM190.268 521.256H192.348V519.416H190.268V521.256ZM190.348 531H192.284V522.552H190.348V531ZM194.964 531H196.9V526.232C196.9 524.92 197.684 524.136 198.804 524.136C199.956 524.136 200.612 524.888 200.612 526.2V531H202.548V525.608C202.548 523.656 201.444 522.376 199.54 522.376C198.228 522.376 197.444 523.064 196.9 523.848V522.552H194.964V531ZM212.015 531.064H213.743L215.647 525.288L217.535 531.064H219.279L222.047 522.552H220.095L218.367 528.344L216.495 522.52H214.831L212.959 528.344L211.263 522.552H209.279L212.015 531.064ZM223.946 521.256H226.026V519.416H223.946V521.256ZM224.026 531H225.962V522.552H224.026V531ZM231.475 531.144C232.211 531.144 232.739 530.984 233.219 530.712V529.128C232.835 529.32 232.451 529.416 232.019 529.416C231.363 529.416 230.979 529.112 230.979 528.36V524.216H233.251V522.552H230.979V520.232H229.043V522.552H227.971V524.216H229.043V528.664C229.043 530.52 230.051 531.144 231.475 531.144ZM235.371 531H237.307V526.232C237.307 524.92 238.091 524.136 239.211 524.136C240.363 524.136 241.019 524.888 241.019 526.2V531H242.955V525.608C242.955 523.656 241.851 522.376 239.947 522.376C238.635 522.376 237.851 523.064 237.307 523.848V519.32H235.371V531Z" fill="#333333"/>
<path d="M109.909 471H111.631V461.2H109.909V471ZM118.833 471H120.527V465.064H122.459V463.664H120.499V463.258C120.499 462.488 120.835 462.138 121.479 462.138C121.843 462.138 122.137 462.208 122.473 462.32V460.892C122.095 460.78 121.689 460.696 121.101 460.696C120.373 460.696 119.827 460.892 119.435 461.284C119.043 461.676 118.833 462.292 118.833 463.104V463.65H117.895V465.064H118.833V471ZM127.196 471.168C129.478 471.168 131.158 469.418 131.158 467.318V467.29C131.158 465.176 129.492 463.454 127.224 463.454C124.956 463.454 123.276 465.204 123.276 467.318V467.346C123.276 469.446 124.942 471.168 127.196 471.168ZM127.224 469.684C125.908 469.684 124.97 468.606 124.97 467.318V467.29C124.97 466.002 125.838 464.938 127.196 464.938C128.526 464.938 129.464 466.016 129.464 467.318V467.346C129.464 468.62 128.596 469.684 127.224 469.684ZM132.984 471H134.678V468.186C134.678 466.226 135.714 465.26 137.198 465.26H137.296V463.468C135.994 463.412 135.14 464.168 134.678 465.274V463.608H132.984V471ZM141.952 473.268C143.282 473.268 144.318 472.946 144.99 472.274C145.606 471.658 145.928 470.734 145.928 469.488V463.608H144.234V464.714C143.66 464.028 142.89 463.454 141.644 463.454C139.922 463.454 138.284 464.742 138.284 466.926V466.954C138.284 469.124 139.908 470.412 141.644 470.412C142.862 470.412 143.632 469.852 144.248 469.054V469.628C144.248 471.112 143.422 471.896 141.91 471.896C140.902 471.896 140.076 471.602 139.278 471.112L138.648 472.386C139.6 472.96 140.734 473.268 141.952 473.268ZM142.092 468.97C140.93 468.97 139.992 468.144 139.992 466.94V466.912C139.992 465.694 140.916 464.882 142.092 464.882C143.268 464.882 144.262 465.708 144.262 466.912V466.94C144.262 468.144 143.268 468.97 142.092 468.97ZM151.668 471.168C153.95 471.168 155.63 469.418 155.63 467.318V467.29C155.63 465.176 153.964 463.454 151.696 463.454C149.428 463.454 147.748 465.204 147.748 467.318V467.346C147.748 469.446 149.414 471.168 151.668 471.168ZM151.696 469.684C150.38 469.684 149.442 468.606 149.442 467.318V467.29C149.442 466.002 150.31 464.938 151.668 464.938C152.998 464.938 153.936 466.016 153.936 467.318V467.346C153.936 468.62 153.068 469.684 151.696 469.684ZM159.933 471.126C160.577 471.126 161.039 470.986 161.459 470.748V469.362C161.123 469.53 160.787 469.614 160.409 469.614C159.835 469.614 159.499 469.348 159.499 468.69V465.064H161.487V463.608H159.499V461.578H157.805V463.608H156.867V465.064H157.805V468.956C157.805 470.58 158.687 471.126 159.933 471.126ZM167.609 471H169.303V466.828C169.303 465.694 169.947 464.994 170.885 464.994C171.823 464.994 172.383 465.638 172.383 466.786V471H174.077V466.828C174.077 465.638 174.735 464.994 175.659 464.994C176.611 464.994 177.157 465.624 177.157 466.8V471H178.851V466.282C178.851 464.476 177.871 463.454 176.261 463.454C175.141 463.454 174.357 463.972 173.769 464.756C173.377 463.972 172.621 463.454 171.557 463.454C170.423 463.454 169.779 464.07 169.303 464.728V463.608H167.609V471ZM184.012 469.096L181.926 463.608H180.106L183.186 471.014C182.906 471.644 182.612 471.854 182.136 471.854C181.786 471.854 181.45 471.742 181.142 471.574L180.568 472.834C181.086 473.114 181.618 473.282 182.318 473.282C183.508 473.282 184.166 472.722 184.754 471.21L187.694 463.608H185.93L184.012 469.096ZM193.543 473.24H195.237V469.852C195.755 470.538 196.525 471.154 197.757 471.154C199.507 471.154 201.187 469.768 201.187 467.318V467.29C201.187 464.826 199.493 463.454 197.757 463.454C196.553 463.454 195.783 464.07 195.237 464.84V463.608H193.543V473.24ZM197.351 469.684C196.203 469.684 195.195 468.732 195.195 467.318V467.29C195.195 465.876 196.203 464.924 197.351 464.924C198.499 464.924 199.465 465.862 199.465 467.29V467.318C199.465 468.774 198.513 469.684 197.351 469.684ZM205.164 471.154C206.298 471.154 207.068 470.678 207.572 470.076V471H209.224V466.618C209.224 465.652 208.972 464.868 208.426 464.336C207.908 463.804 207.082 463.51 205.976 463.51C204.8 463.51 204.002 463.748 203.19 464.112L203.638 465.442C204.31 465.162 204.926 464.98 205.752 464.98C206.942 464.98 207.586 465.54 207.586 466.59V466.772C207.012 466.59 206.424 466.464 205.598 466.464C203.792 466.464 202.546 467.248 202.546 468.844V468.872C202.546 470.356 203.778 471.154 205.164 471.154ZM205.64 469.922C204.828 469.922 204.198 469.516 204.198 468.802V468.774C204.198 468.004 204.842 467.542 205.934 467.542C206.606 467.542 207.18 467.668 207.614 467.836V468.34C207.614 469.278 206.76 469.922 205.64 469.922ZM213.887 471.14C215.427 471.14 216.631 470.37 216.631 468.816V468.788C216.631 467.458 215.413 466.968 214.335 466.632C213.467 466.352 212.669 466.128 212.669 465.582V465.554C212.669 465.134 213.047 464.826 213.705 464.826C214.321 464.826 215.077 465.092 215.791 465.526L216.463 464.322C215.679 463.804 214.671 463.482 213.747 463.482C212.277 463.482 211.115 464.336 211.115 465.736V465.764C211.115 467.178 212.333 467.626 213.425 467.934C214.293 468.2 215.077 468.396 215.077 468.97V468.998C215.077 469.488 214.657 469.796 213.929 469.796C213.173 469.796 212.319 469.488 211.507 468.886L210.751 470.034C211.675 470.762 212.837 471.14 213.887 471.14ZM220.864 471.14C222.404 471.14 223.608 470.37 223.608 468.816V468.788C223.608 467.458 222.39 466.968 221.312 466.632C220.444 466.352 219.646 466.128 219.646 465.582V465.554C219.646 465.134 220.024 464.826 220.682 464.826C221.298 464.826 222.054 465.092 222.768 465.526L223.44 464.322C222.656 463.804 221.648 463.482 220.724 463.482C219.254 463.482 218.092 464.336 218.092 465.736V465.764C218.092 467.178 219.31 467.626 220.402 467.934C221.27 468.2 222.054 468.396 222.054 468.97V468.998C222.054 469.488 221.634 469.796 220.906 469.796C220.15 469.796 219.296 469.488 218.484 468.886L217.728 470.034C218.652 470.762 219.814 471.14 220.864 471.14ZM227.016 471.056H228.528L230.194 466.002L231.846 471.056H233.372L235.794 463.608H234.086L232.574 468.676L230.936 463.58H229.48L227.842 468.676L226.358 463.608H224.622L227.016 471.056ZM240.555 471.168C242.837 471.168 244.517 469.418 244.517 467.318V467.29C244.517 465.176 242.851 463.454 240.583 463.454C238.315 463.454 236.635 465.204 236.635 467.318V467.346C236.635 469.446 238.301 471.168 240.555 471.168ZM240.583 469.684C239.267 469.684 238.329 468.606 238.329 467.318V467.29C238.329 466.002 239.197 464.938 240.555 464.938C241.885 464.938 242.823 466.016 242.823 467.318V467.346C242.823 468.62 241.955 469.684 240.583 469.684ZM246.343 471H248.037V468.186C248.037 466.226 249.073 465.26 250.557 465.26H250.655V463.468C249.353 463.412 248.499 464.168 248.037 465.274V463.608H246.343V471ZM255.073 471.154C256.277 471.154 257.047 470.538 257.593 469.768V471H259.287V460.78H257.593V464.756C257.061 464.056 256.291 463.454 255.073 463.454C253.309 463.454 251.643 464.84 251.643 467.29V467.318C251.643 469.768 253.337 471.154 255.073 471.154ZM255.479 469.684C254.331 469.684 253.351 468.746 253.351 467.318V467.29C253.351 465.82 254.317 464.924 255.479 464.924C256.613 464.924 257.621 465.862 257.621 467.29V467.318C257.621 468.732 256.613 469.684 255.479 469.684Z" fill="#333333"/>
<circle cx="145" cy="581" r="25" fill="white"/>
<path d="M157.137 574.592C156.945 574.745 153.549 576.707 153.549 581.07C153.549 586.115 157.87 587.901 158 587.945C157.98 588.054 157.314 590.39 155.721 592.77C154.302 594.864 152.82 596.956 150.564 596.956C148.308 596.956 147.728 595.613 145.125 595.613C142.521 595.613 141.685 597 139.622 597C137.56 597 136.12 595.061 134.465 592.682C132.549 589.886 131 585.544 131 581.423C131 574.813 135.192 571.307 139.318 571.307C141.511 571.307 143.337 572.783 144.714 572.783C146.091 572.783 148.067 571.218 150.561 571.218C151.506 571.218 154.902 571.307 157.137 574.592ZM149.377 568.42C150.409 567.165 151.138 565.424 151.138 563.684C151.138 563.443 151.118 563.197 151.075 563C149.396 563.065 147.4 564.146 146.196 565.577C145.251 566.679 144.368 568.42 144.368 570.185C144.368 570.45 144.411 570.716 144.432 570.8C144.538 570.821 144.711 570.844 144.883 570.844C146.388 570.844 148.282 569.811 149.377 568.42Z" fill="black"/>
<circle cx="225" cy="581" r="25" fill="white"/>
<path d="M240.999 581.374C240.999 580.319 240.907 579.318 240.748 578.344H225.836V584.363H234.375C233.992 586.339 232.87 588.007 231.207 589.142V593.145H236.301C239.284 590.356 240.999 586.245 240.999 581.373V581.374Z" fill="#4285F4"/>
<path d="M225.838 597.038C230.114 597.038 233.69 595.596 236.303 593.154L231.209 589.15C229.783 590.111 227.976 590.698 225.838 590.698C221.707 590.698 218.21 587.882 216.957 584.078H211.703V588.202C214.303 593.434 219.648 597.038 225.837 597.038H225.838Z" fill="#34A853"/>
<path d="M216.955 584.081C216.625 583.119 216.454 582.092 216.454 581.024C216.454 579.956 216.638 578.929 216.955 577.968V573.844H211.702C210.62 576.005 210 578.435 210 581.024C210 583.614 210.62 586.043 211.702 588.205L216.955 584.081Z" fill="#FBBC05"/>
<path d="M225.838 571.34C228.174 571.34 230.259 572.154 231.909 573.743L236.422 569.178C233.69 566.588 230.114 565 225.838 565C219.648 565 214.303 568.604 211.703 573.836L216.956 577.96C218.21 574.156 221.707 571.34 225.837 571.34H225.838Z" fill="#EA4335"/>
<g clip-path="url(#clip1_6_512)">
<path d="M215.182 163.26C214.492 163.26 214.192 162.97 214.182 162.27C214.182 162.12 214.192 161.97 214.212 161.83C214.512 159.24 214.822 156.65 215.142 154.07C215.182 153.79 215.082 153.76 214.862 153.79C213.772 153.95 212.682 154.1 211.592 154.27C210.672 154.41 210.672 154.42 210.512 155.39C210.222 154.87 209.772 154.69 209.262 154.66C207.702 154.55 206.232 154.89 204.882 155.66C202.232 157.19 200.582 160.59 200.992 163.63C201.022 163.8 201.112 163.98 201.042 164.16C200.542 165.51 199.552 166.34 198.252 166.91C198.162 166.95 198.072 166.98 197.982 167.02C198.192 165.32 198.392 163.69 198.582 162.07C198.812 160.17 199.042 158.27 199.282 156.38C199.312 156.13 199.302 156.04 198.992 156.09C197.792 156.29 196.582 156.45 195.372 156.6C194.932 156.65 194.672 156.79 194.722 157.28C194.732 157.39 194.752 157.53 194.612 157.61C194.352 157.17 193.922 156.97 193.442 156.95C191.612 156.86 189.872 157.24 188.412 158.37C185.932 160.3 184.872 162.89 185.162 166.02C185.182 166.19 185.222 166.34 185.112 166.5C184.512 167.42 183.692 167.96 182.572 167.98C181.922 167.98 181.632 167.69 181.612 167.04C181.612 166.24 181.762 165.46 181.852 164.67C182.072 162.72 182.312 160.78 182.542 158.84C182.572 158.62 182.602 158.45 182.272 158.5C180.992 158.7 179.712 158.89 178.432 159.06C178.122 159.11 178.032 159.24 177.992 159.55C177.792 161.45 177.542 163.34 177.322 165.24C177.232 166.09 177.072 166.94 177.102 167.8C177.152 169.34 177.962 170.27 179.472 170.53C180.352 170.68 181.182 170.5 182.012 170.28C182.582 170.12 183.122 169.91 183.612 169.63C184.442 169.17 185.152 168.54 185.742 167.72C186.572 168.88 187.712 169.29 189.062 169.27C190.732 169.25 192.182 168.7 193.442 167.53C193.502 168.28 193.302 168.73 192.552 169C191.382 169.44 190.282 170.05 189.412 170.98C188.212 172.27 188.722 173.97 190.402 174.41C191.402 174.67 192.382 174.6 193.362 174.39C195.062 174.03 196.452 173.22 197.212 171.57C197.672 170.6 197.702 169.56 197.812 168.53C197.842 168.23 197.932 168.08 198.222 167.98C198.282 167.95 198.352 167.93 198.412 167.9C198.482 167.88 198.542 167.85 198.612 167.82C199.732 167.36 200.742 166.73 201.482 165.73C201.622 165.53 201.702 165.57 201.842 165.73C202.282 166.26 202.842 166.64 203.522 166.82C204.752 167.15 205.962 167 207.152 166.57C208.272 166.16 209.162 165.44 209.882 164.5C209.952 164.41 210.042 164.05 210.232 164.42C210.732 165.4 211.582 165.83 212.622 165.84C214.722 165.87 215.802 165.08 216.232 163.07C215.882 163.17 215.542 163.26 215.182 163.26ZM192.282 172.49C192.132 172.62 191.992 172.74 191.782 172.78C191.262 172.89 190.762 172.75 190.572 172.43C190.372 172.1 190.502 171.64 190.922 171.22C191.552 170.61 192.352 170.25 193.192 169.87C193.082 170.86 193.022 171.79 192.282 172.49ZM193.822 164.55C193.662 165.73 192.362 166.76 191.172 166.73C190.532 166.71 190.032 166.27 189.862 165.56C189.752 165.09 189.702 164.61 189.712 163.89C189.762 162.21 190.212 160.43 191.632 159.03C192.182 158.48 192.862 158.23 193.652 158.3C194.282 158.35 194.542 158.65 194.472 159.27C194.272 161.03 194.062 162.8 193.822 164.55ZM209.752 161.89C209.612 163.24 208.572 164.3 207.232 164.44C206.522 164.52 205.852 164.06 205.712 163.25C205.322 160.92 205.712 158.75 207.302 156.91C207.832 156.29 208.522 155.98 209.332 155.98C210.022 155.98 210.402 156.42 210.322 157.09C210.132 158.69 209.932 160.29 209.752 161.89ZM173.852 172.86C175.782 173.36 177.592 174.19 179.452 174.86C180.902 175.38 182.372 175.82 183.942 175.74C184.892 175.7 185.702 175.39 186.292 174.59C186.882 173.78 187.052 172.84 187.112 171.87C187.122 171.66 187.012 171.66 186.852 171.72C186.462 171.86 186.062 172.02 185.662 172.13C183.512 172.72 181.362 172.46 179.232 172C177.422 171.61 175.652 171.03 173.792 170.96C173.512 170.95 173.572 170.77 173.592 170.62C173.672 169.93 173.762 169.25 173.852 168.56C174.402 164.03 174.952 159.51 175.502 154.98C175.632 153.92 175.632 153.9 174.592 154.04C171.352 154.45 168.492 155.74 166.062 157.92C165.322 158.58 164.722 159.34 164.432 160.32C164.012 161.75 164.632 162.99 165.932 163.31C166.542 163.46 167.162 163.41 167.772 163.37C167.862 163.37 167.972 163.39 168.022 163.3C168.082 163.17 167.952 163.12 167.892 163.05C167.722 162.83 167.602 162.59 167.532 162.33C167.072 160.64 167.392 159.14 168.612 157.86C169.252 157.2 169.992 156.68 170.922 156.29C170.572 159.07 170.232 161.77 169.902 164.47C169.562 167.19 169.242 169.9 168.902 172.68C170.612 172.33 172.252 172.44 173.872 172.87L173.852 172.86ZM182.702 156.64C183.472 155.87 183.342 154.8 182.422 154.22C181.352 153.54 179.692 153.68 178.762 154.53C177.842 155.37 177.992 156.6 179.102 157.18C179.522 157.4 179.972 157.5 180.452 157.49C181.302 157.47 182.092 157.25 182.712 156.63L182.702 156.64ZM146.592 135.57C147.912 134.72 149.042 133.68 149.812 132.28C151.112 129.92 150.822 127.49 148.992 125.77C148.002 124.84 146.822 124.26 145.522 123.91C143.542 123.38 141.522 123.38 139.492 123.56C135.752 123.89 132.192 124.84 128.862 126.61C126.562 127.83 124.462 129.32 122.822 131.38C121.662 132.84 120.892 134.44 121.012 136.38C121.112 137.95 121.912 139.06 123.362 139.5C124.462 139.84 125.592 139.82 126.722 139.71C127.022 139.68 127.012 139.56 126.852 139.38C126.492 138.97 126.272 138.49 126.152 137.97C125.842 136.68 125.812 135.37 126.102 134.07C126.622 131.77 128.022 130.07 129.842 128.68C132.072 126.98 134.632 126.08 137.382 125.67C138.912 125.44 140.442 125.37 141.952 125.76C144.612 126.44 145.812 128.41 145.172 131.04C144.462 133.93 141.342 136.55 138.432 136.71C138.202 136.72 138.212 136.63 138.242 136.47C138.332 135.89 138.422 135.31 138.512 134.73C138.862 132.43 139.202 130.12 139.562 127.82C139.612 127.51 139.582 127.42 139.222 127.5C136.952 128.02 134.672 128.52 132.402 129.01C132.102 129.07 131.982 129.2 131.942 129.48C131.722 130.98 131.492 132.49 131.262 133.99C130.772 137.18 130.292 140.36 129.802 143.55C129.192 147.54 128.582 151.52 127.952 155.51C127.902 155.81 128.022 155.8 128.232 155.78C128.652 155.73 129.062 155.68 129.482 155.63C131.352 155.41 133.222 155.19 135.102 154.98C135.302 154.96 135.422 154.92 135.462 154.68C135.872 151.93 136.302 149.19 136.722 146.45C137.092 144.06 137.462 141.68 137.822 139.29C137.872 138.96 138.002 138.83 138.332 138.77C139.212 138.61 140.092 138.43 140.982 138.41C142.962 138.35 144.642 139 145.392 141.15C146.242 143.6 146.192 146.07 145.072 148.45C144.142 150.43 142.052 151.42 139.952 150.93C139.292 150.78 138.692 150.48 138.112 150.13C137.992 150.06 137.862 149.91 137.772 150.18C137.522 150.97 137.332 151.78 137.502 152.61C137.752 153.88 138.702 154.43 139.852 154.71C141.082 155.01 142.322 154.89 143.552 154.71C147.592 154.14 150.322 151.84 152.052 148.23C152.142 148.03 153.162 145.75 153.142 143.26C153.132 141.23 152.542 139.82 152.492 139.71C152.052 138.72 151.402 137.89 150.532 137.24C149.252 136.28 147.752 136 146.102 135.89C146.322 135.75 146.452 135.66 146.592 135.58V135.57ZM234.072 115.27C234.152 114.77 234.152 114.76 233.682 114.86C231.432 115.36 229.192 115.87 226.942 116.36C226.642 116.43 226.512 116.55 226.462 116.87C226.272 118.24 226.062 119.6 225.852 120.97C225.392 123.99 224.922 127.01 224.452 130.03C223.992 133.04 223.532 136.04 223.062 139.05C222.772 140.91 222.492 142.77 222.192 144.64C222.142 144.93 222.232 145.01 222.512 144.97C223.012 144.9 223.512 144.85 224.012 144.8C225.802 144.6 227.592 144.39 229.382 144.19C229.562 144.17 229.652 144.1 229.672 143.91C229.722 143.52 229.782 143.14 229.842 142.75C230.422 138.97 231.012 135.19 231.562 131.41C231.752 130.13 232.082 128.92 232.872 127.88C233.582 126.95 234.522 126.43 235.702 126.42C236.452 126.42 236.982 126.76 237.262 127.47C237.472 128.01 237.522 128.58 237.492 129.16C237.402 130.91 237.032 132.61 236.722 134.33C236.432 135.94 236.172 137.55 236.342 139.2C236.502 140.81 237.662 142.39 239.132 142.75C241.622 143.35 243.962 143.02 245.972 141.29C246.902 140.49 247.262 139.41 247.352 138.18C246.532 138.51 245.732 138.63 244.892 138.6C244.092 138.57 243.572 138.14 243.412 137.37C243.332 137 243.302 136.63 243.342 136.25C243.502 134.63 243.902 133.06 244.202 131.47C244.522 129.77 244.822 128.07 244.672 126.32C244.502 124.27 243.552 123.05 241.552 122.58C238.512 121.87 235.772 122.55 233.352 124.52C233.072 124.75 232.822 125 232.502 125.28C233.022 121.9 233.532 118.59 234.052 115.28L234.072 115.27ZM201.462 145.53C201.132 145.09 200.902 144.6 200.712 144.09C200.642 143.92 200.582 143.83 200.372 143.92C199.982 144.09 199.562 144.13 199.152 144.15C197.982 144.24 197.312 143.7 197.152 142.55C197.092 142.06 197.202 141.58 197.272 141.1C197.962 136.51 198.652 131.93 199.352 127.35C199.392 127.1 199.382 127.01 199.072 127.05C196.792 127.33 194.502 127.59 192.212 127.83C191.922 127.86 191.872 128 191.842 128.23C191.772 128.77 191.702 129.31 191.632 129.85C191.432 129.04 190.922 128.64 190.272 128.41C190.062 128.33 189.832 128.27 189.592 128.23C189.062 128.13 188.522 128.13 187.972 128.16C184.232 128.36 181.102 129.78 178.742 132.75C175.952 136.27 174.752 140.26 175.402 144.74C175.782 147.35 177.712 149.36 180.172 149.72C182.772 150.09 185.082 149.58 187.092 148.26C187.822 147.79 188.502 147.21 189.152 146.53C189.562 146.11 189.922 145.64 190.342 145.16C190.402 145.35 190.452 145.48 190.492 145.61C191.022 147.09 192.072 147.97 193.632 148.23C194.672 148.41 195.712 148.33 196.752 148.14C198.452 147.82 200.002 147.17 201.382 146.1C201.622 145.91 201.642 145.78 201.462 145.53ZM191.252 132.23C190.762 135.33 190.332 138.44 189.812 141.53C189.452 143.7 187.762 145.23 185.612 145.48C185.512 145.49 185.412 145.49 185.322 145.49C184.482 145.49 183.772 145.06 183.362 144.28C182.992 143.57 182.902 142.78 182.892 142.01C182.822 138.74 183.432 135.65 185.392 132.94C185.832 132.34 186.322 131.79 186.912 131.33C187.632 130.79 188.442 130.53 189.342 130.53H189.372C190.012 130.52 190.592 130.65 190.992 131.22C191.212 131.53 191.322 131.83 191.252 132.23ZM172.922 146.28C172.842 145.93 172.762 145.88 172.462 146.11C170.522 147.59 168.272 148.17 165.882 148.21C164.202 148.23 163.402 147.52 163.042 145.88C162.922 145.32 162.882 144.75 162.882 144.18C162.882 143.49 162.882 143.5 163.562 143.36C166.712 142.71 169.512 141.39 171.782 139.07C173.262 137.55 174.092 135.77 173.892 133.59C173.742 132.05 172.742 130.81 171.252 130.44C169.972 130.13 168.672 130.21 167.382 130.35C164.332 130.67 161.662 131.88 159.552 134.06C156.072 137.67 154.672 142.05 155.372 147.04C155.672 149.24 156.862 150.82 159.052 151.54C160.152 151.9 161.282 152.05 162.462 152.02C163.552 152.04 164.662 151.89 165.762 151.66C168.552 151.09 171.032 149.88 173.202 148.04C173.422 147.86 173.482 147.72 173.352 147.45C173.172 147.08 173.022 146.68 172.922 146.28ZM163.072 141.24C163.462 138.8 164.212 136.49 165.582 134.42C166.152 133.54 166.872 132.8 167.912 132.47C169.072 132.11 169.772 132.6 169.852 133.81C169.872 134.02 169.852 134.23 169.852 134.44C169.892 135.89 169.362 137.14 168.482 138.26C167.162 139.95 165.462 141.04 163.342 141.46C163.102 141.51 163.032 141.46 163.072 141.24ZM219.532 140.96C217.622 142.23 215.482 142.77 213.222 142.72C211.562 142.69 210.632 141.72 210.462 140.1C210.252 138.19 210.382 136.31 210.802 134.44C211.292 132.25 212.102 130.2 213.492 128.41C214.022 127.73 214.642 127.15 215.532 126.95C216.502 126.74 217.142 127.15 217.352 128.12C217.492 128.75 217.422 129.37 217.322 129.99C217.272 130.31 216.952 130.67 217.182 130.91C217.402 131.14 217.832 131.12 218.172 131.16C219.562 131.34 220.892 130.62 221.232 129.42C221.662 127.9 221.292 125.85 219.122 125.13C217.692 124.66 216.232 124.72 214.772 124.88C211.542 125.24 208.762 126.59 206.622 129C203.492 132.54 202.192 136.73 202.842 141.45C203.192 143.99 204.632 145.63 207.172 146.24C208.572 146.58 209.992 146.61 211.412 146.46C214.282 146.17 216.932 145.25 219.322 143.61C219.442 143.53 219.592 143.47 219.622 143.29C219.752 142.42 219.892 141.56 220.032 140.68C219.802 140.71 219.682 140.86 219.532 140.96ZM229.342 113.57C220.682 98.86 204.722 88.98 186.452 88.98C185.822 88.98 185.182 88.99 184.552 89.02C184.182 89.03 183.802 89.05 183.442 89.07C182.322 89.13 181.212 89.24 180.102 89.38C179.742 89.42 179.362 89.47 179.002 89.54C178.522 89.61 178.042 89.69 177.582 89.78C177.202 89.84 176.812 89.92 176.442 90C176.072 90.07 175.692 90.16 175.322 90.24C174.742 90.38 174.172 90.52 173.612 90.67C173.182 90.78 172.762 90.9 172.342 91.03C171.932 91.14 171.532 91.27 171.132 91.4C171.072 91.42 171.012 91.44 170.942 91.46C170.512 91.6 170.102 91.74 169.682 91.9H169.672C169.232 92.06 168.812 92.21 168.382 92.39C167.952 92.55 167.542 92.71 167.122 92.9C167.102 92.9 167.082 92.91 167.072 92.92C166.642 93.1 166.232 93.28 165.822 93.47H165.812C165.382 93.67 164.982 93.85 164.572 94.06C164.552 94.06 164.542 94.07 164.542 94.07C164.172 94.26 163.802 94.43 163.452 94.63C163.342 94.68 163.222 94.74 163.122 94.81C162.792 94.99 162.452 95.16 162.132 95.35C162.032 95.4 161.932 95.45 161.842 95.52C161.802 95.54 161.762 95.56 161.732 95.58C161.482 95.72 161.242 95.86 161.002 96.01C160.832 96.1 160.682 96.2 160.522 96.3C160.272 96.45 160.022 96.6 159.782 96.77C159.522 96.93 159.272 97.09 159.022 97.27C158.792 97.42 158.552 97.57 158.322 97.73C158.042 97.93 157.772 98.11 157.502 98.31C157.132 98.57 156.762 98.84 156.402 99.12C156.372 99.14 156.342 99.17 156.312 99.19C155.982 99.44 155.662 99.7 155.332 99.96C154.982 100.24 154.622 100.53 154.282 100.82C153.652 101.36 153.022 101.92 152.412 102.5C152.362 102.54 152.312 102.59 152.242 102.66C151.912 102.97 151.572 103.29 151.262 103.62C149.972 104.91 148.762 106.27 147.612 107.69C147.322 108.05 147.032 108.43 146.752 108.8C146.442 109.21 146.142 109.62 145.852 110.04C145.412 110.65 145.002 111.27 144.602 111.9C142.702 114.84 141.102 118 139.852 121.34C139.642 121.35 139.432 121.37 139.232 121.39C138.522 121.45 137.822 121.54 137.132 121.65C144.182 101.48 163.392 87 185.982 87C192.742 87 199.182 88.29 205.092 90.64C205.232 90.7 205.382 90.76 205.532 90.83C205.802 90.93 206.072 91.05 206.342 91.16C206.762 91.34 207.182 91.52 207.602 91.72H207.612C207.702 91.76 207.792 91.8 207.882 91.86C208.492 92.14 209.112 92.44 209.712 92.75C209.832 92.81 209.962 92.89 210.092 92.95C210.462 93.16 210.852 93.37 211.232 93.57C211.702 93.83 212.172 94.1 212.622 94.39C212.722 94.44 212.832 94.5 212.922 94.57C213.482 94.91 214.032 95.27 214.582 95.63C214.682 95.7 214.792 95.77 214.892 95.84C214.932 95.87 214.972 95.9 215.012 95.92C215.302 96.12 215.582 96.31 215.862 96.51C215.872 96.52 215.892 96.53 215.902 96.54C215.952 96.58 216.012 96.62 216.072 96.65C216.362 96.86 216.632 97.07 216.912 97.27C217.052 97.36 217.172 97.47 217.302 97.57C217.372 97.62 217.452 97.67 217.522 97.74C217.622 97.82 217.732 97.9 217.832 97.98C219.152 99.02 220.422 100.11 221.632 101.28C221.742 101.37 221.862 101.49 221.962 101.59C222.152 101.77 222.332 101.95 222.522 102.14C222.622 102.24 222.742 102.36 222.842 102.47C222.902 102.52 222.942 102.57 222.992 102.63C223.222 102.85 223.442 103.08 223.642 103.31C223.872 103.55 224.092 103.79 224.292 104.04C224.702 104.47 225.072 104.9 225.422 105.34H225.432C225.702 105.65 225.962 105.97 226.222 106.3C226.302 106.38 226.372 106.47 226.432 106.55C226.822 107.05 227.222 107.57 227.602 108.09C227.642 108.15 227.692 108.21 227.742 108.28C228.122 108.8 228.492 109.32 228.842 109.85C229.592 110.94 230.302 112.07 230.952 113.23H230.922C230.452 113.33 229.972 113.44 229.512 113.55L229.302 113.59L229.342 113.57ZM236.092 143.39C235.562 149.51 233.932 155.32 231.412 160.6C231.232 160.95 231.072 161.31 230.892 161.65C230.682 162.04 230.482 162.43 230.282 162.81C230.092 163.16 229.902 163.52 229.692 163.86C229.162 164.81 228.592 165.72 227.992 166.62C227.792 166.92 227.582 167.23 227.372 167.52C227.302 167.64 227.212 167.76 227.132 167.87C227.022 168.04 226.902 168.2 226.772 168.36C225.022 170.79 223.062 173.05 220.902 175.1C220.882 175.14 220.862 175.16 220.832 175.17C220.832 175.17 220.832 175.19 220.822 175.18C220.512 175.49 220.192 175.79 219.862 176.07C219.792 176.14 219.712 176.22 219.642 176.27C219.012 176.85 218.352 177.4 217.692 177.93C216.952 178.53 216.202 179.1 215.422 179.67H215.412C215.032 179.96 214.632 180.23 214.232 180.49C213.852 180.76 213.442 181.02 213.032 181.27C212.662 181.52 212.272 181.76 211.882 181.99C211.862 182.01 211.842 182.02 211.812 182.03C211.472 182.24 211.122 182.44 210.772 182.63C210.712 182.67 210.632 182.71 210.562 182.74C210.222 182.94 209.872 183.12 209.522 183.3C209.462 183.34 209.402 183.37 209.332 183.39C209.322 183.41 209.312 183.41 209.292 183.41C208.672 183.74 208.032 184.05 207.392 184.35C207.182 184.45 206.972 184.55 206.772 184.64C206.622 184.71 206.472 184.78 206.312 184.84C206.122 184.92 205.942 185.01 205.742 185.09C205.632 185.14 205.502 185.19 205.372 185.25C205.062 185.39 204.742 185.51 204.402 185.63C204.392 185.64 204.382 185.64 204.372 185.64C204.292 185.68 204.192 185.71 204.102 185.74C204.052 185.76 204.002 185.78 203.932 185.8L203.342 186.02C203.112 186.1 202.882 186.19 202.642 186.27C202.542 186.3 202.432 186.34 202.332 186.36C202.242 186.4 202.142 186.43 202.042 186.46C202.002 186.48 201.962 186.49 201.902 186.5C201.682 186.58 201.462 186.65 201.252 186.71C201.132 186.76 201.002 186.79 200.882 186.82C200.682 186.89 200.492 186.94 200.282 187C200.232 187.02 200.182 187.04 200.112 187.05C200.032 187.08 199.942 187.1 199.852 187.12C199.382 187.26 198.902 187.38 198.432 187.49C198.042 187.59 197.632 187.69 197.222 187.77C197.152 187.79 197.072 187.81 196.992 187.82C195.892 188.06 194.782 188.26 193.642 188.42C193.382 188.46 193.122 188.49 192.872 188.52C192.812 188.53 192.762 188.54 192.702 188.54C192.282 188.59 191.872 188.64 191.452 188.68C189.822 188.85 188.182 188.93 186.502 188.93C169.932 188.93 155.272 180.81 146.232 168.31C143.682 164.82 141.592 160.97 140.032 156.88C139.782 156.85 139.542 156.81 139.302 156.74C138.472 156.53 137.792 156.23 137.262 155.87C137.252 155.88 137.252 155.89 137.242 155.9C138.882 160.56 141.172 164.9 144.012 168.82C144.302 169.23 144.602 169.63 144.902 170.04C145.212 170.43 145.522 170.83 145.842 171.21C155.312 182.92 169.802 190.41 186.042 190.41C212.692 190.41 234.642 170.25 237.452 144.35C236.962 144.09 236.502 143.75 236.102 143.34L236.092 143.39ZM215.182 163.25C214.492 163.25 214.192 162.96 214.182 162.26C214.182 162.11 214.192 161.96 214.212 161.82C214.512 159.23 214.822 156.64 215.142 154.06C215.182 153.78 215.082 153.75 214.862 153.78C213.772 153.94 212.682 154.09 211.592 154.26C210.672 154.4 210.672 154.41 210.512 155.38C210.222 154.86 209.772 154.68 209.262 154.65C207.702 154.54 206.232 154.88 204.882 155.65C202.232 157.18 200.582 160.58 200.992 163.62C201.022 163.79 201.112 163.97 201.042 164.15C200.542 165.5 199.552 166.33 198.252 166.9C198.162 166.94 198.072 166.97 197.982 167.01C198.192 165.31 198.392 163.68 198.582 162.06C198.812 160.16 199.042 158.26 199.282 156.37C199.312 156.12 199.302 156.03 198.992 156.08C197.792 156.28 196.582 156.44 195.372 156.59C194.932 156.64 194.672 156.78 194.722 157.27C194.732 157.38 194.752 157.52 194.612 157.6C194.352 157.16 193.922 156.96 193.442 156.94C191.612 156.85 189.872 157.23 188.412 158.36C185.932 160.29 184.872 162.88 185.162 166.01C185.182 166.18 185.222 166.33 185.112 166.49C184.512 167.41 183.692 167.95 182.572 167.97C181.922 167.97 181.632 167.68 181.612 167.03C181.612 166.23 181.762 165.45 181.852 164.66C182.072 162.71 182.312 160.77 182.542 158.83C182.572 158.61 182.602 158.44 182.272 158.49C180.992 158.69 179.712 158.88 178.432 159.05C178.122 159.1 178.032 159.23 177.992 159.54C177.792 161.44 177.542 163.33 177.322 165.23C177.232 166.08 177.072 166.93 177.102 167.79C177.152 169.33 177.962 170.26 179.472 170.52C180.352 170.67 181.182 170.49 182.012 170.27C182.582 170.11 183.122 169.9 183.612 169.62C184.442 169.16 185.152 168.53 185.742 167.71C186.572 168.87 187.712 169.28 189.062 169.26C190.732 169.24 192.182 168.69 193.442 167.52C193.502 168.27 193.302 168.72 192.552 168.99C191.382 169.43 190.282 170.04 189.412 170.97C188.212 172.26 188.722 173.96 190.402 174.4C191.402 174.66 192.382 174.59 193.362 174.38C195.062 174.02 196.452 173.21 197.212 171.56C197.672 170.59 197.702 169.55 197.812 168.52C197.842 168.22 197.932 168.07 198.222 167.97C198.282 167.94 198.352 167.92 198.412 167.89C198.482 167.87 198.542 167.84 198.612 167.81C199.732 167.35 200.742 166.72 201.482 165.72C201.622 165.52 201.702 165.56 201.842 165.72C202.282 166.25 202.842 166.63 203.522 166.81C204.752 167.14 205.962 166.99 207.152 166.56C208.272 166.15 209.162 165.43 209.882 164.49C209.952 164.4 210.042 164.04 210.232 164.41C210.732 165.39 211.582 165.82 212.622 165.83C214.722 165.86 215.802 165.07 216.232 163.06C215.882 163.16 215.542 163.25 215.182 163.25ZM192.282 172.48C192.132 172.61 191.992 172.73 191.782 172.77C191.262 172.88 190.762 172.74 190.572 172.42C190.372 172.09 190.502 171.63 190.922 171.21C191.552 170.6 192.352 170.24 193.192 169.86C193.082 170.85 193.022 171.78 192.282 172.48ZM193.822 164.54C193.662 165.72 192.362 166.75 191.172 166.72C190.532 166.7 190.032 166.26 189.862 165.55C189.752 165.08 189.702 164.6 189.712 163.88C189.762 162.2 190.212 160.42 191.632 159.02C192.182 158.47 192.862 158.22 193.652 158.29C194.282 158.34 194.542 158.64 194.472 159.26C194.272 161.02 194.062 162.79 193.822 164.54ZM209.752 161.88C209.612 163.23 208.572 164.29 207.232 164.43C206.522 164.51 205.852 164.05 205.712 163.24C205.322 160.91 205.712 158.74 207.302 156.9C207.832 156.28 208.522 155.97 209.332 155.97C210.022 155.97 210.402 156.41 210.322 157.08C210.132 158.68 209.932 160.28 209.752 161.88ZM173.852 172.85C175.782 173.35 177.592 174.18 179.452 174.85C180.902 175.37 182.372 175.81 183.942 175.73C184.892 175.69 185.702 175.38 186.292 174.58C186.882 173.77 187.052 172.83 187.112 171.86C187.122 171.65 187.012 171.65 186.852 171.71C186.462 171.85 186.062 172.01 185.662 172.12C183.512 172.71 181.362 172.45 179.232 171.99C177.422 171.6 175.652 171.02 173.792 170.95C173.512 170.94 173.572 170.76 173.592 170.61C173.672 169.92 173.762 169.24 173.852 168.55C174.402 164.02 174.952 159.5 175.502 154.97C175.632 153.91 175.632 153.89 174.592 154.03C171.352 154.44 168.492 155.73 166.062 157.91C165.322 158.57 164.722 159.33 164.432 160.31C164.012 161.74 164.632 162.98 165.932 163.3C166.542 163.45 167.162 163.4 167.772 163.36C167.862 163.36 167.972 163.38 168.022 163.29C168.082 163.16 167.952 163.11 167.892 163.04C167.722 162.82 167.602 162.58 167.532 162.32C167.072 160.63 167.392 159.13 168.612 157.85C169.252 157.19 169.992 156.67 170.922 156.28C170.572 159.06 170.232 161.76 169.902 164.46C169.562 167.18 169.242 169.89 168.902 172.67C170.612 172.32 172.252 172.43 173.872 172.86L173.852 172.85ZM182.702 156.63C183.472 155.86 183.342 154.79 182.422 154.21C181.352 153.53 179.692 153.67 178.762 154.52C177.842 155.36 177.992 156.59 179.102 157.17C179.522 157.39 179.972 157.49 180.452 157.48C181.302 157.46 182.092 157.24 182.712 156.62L182.702 156.63ZM146.592 135.56C147.912 134.71 149.042 133.67 149.812 132.27C151.112 129.91 150.822 127.48 148.992 125.76C148.002 124.83 146.822 124.25 145.522 123.9C143.542 123.37 141.522 123.37 139.492 123.55C135.752 123.88 132.192 124.83 128.862 126.6C126.562 127.82 124.462 129.31 122.822 131.37C121.662 132.83 120.892 134.43 121.012 136.37C121.112 137.94 121.912 139.05 123.362 139.49C124.462 139.83 125.592 139.81 126.722 139.7C127.022 139.67 127.012 139.55 126.852 139.37C126.492 138.96 126.272 138.48 126.152 137.96C125.842 136.67 125.812 135.36 126.102 134.06C126.622 131.76 128.022 130.06 129.842 128.67C132.072 126.97 134.632 126.07 137.382 125.66C138.912 125.43 140.442 125.36 141.952 125.75C144.612 126.43 145.812 128.4 145.172 131.03C144.462 133.92 141.342 136.54 138.432 136.7C138.202 136.71 138.212 136.62 138.242 136.46C138.332 135.88 138.422 135.3 138.512 134.72C138.862 132.42 139.202 130.11 139.562 127.81C139.612 127.5 139.582 127.41 139.222 127.49C136.952 128.01 134.672 128.51 132.402 129C132.102 129.06 131.982 129.19 131.942 129.47C131.722 130.97 131.492 132.48 131.262 133.98C130.772 137.17 130.292 140.35 129.802 143.54C129.192 147.53 128.582 151.51 127.952 155.5C127.902 155.8 128.022 155.79 128.232 155.77C128.652 155.72 129.062 155.67 129.482 155.62C131.352 155.4 133.222 155.18 135.102 154.97C135.302 154.95 135.422 154.91 135.462 154.67C135.872 151.92 136.302 149.18 136.722 146.44C137.092 144.05 137.462 141.67 137.822 139.28C137.872 138.95 138.002 138.82 138.332 138.76C139.212 138.6 140.092 138.42 140.982 138.4C142.962 138.34 144.642 138.99 145.392 141.14C146.242 143.59 146.192 146.06 145.072 148.44C144.142 150.42 142.052 151.41 139.952 150.92C139.292 150.77 138.692 150.47 138.112 150.12C137.992 150.05 137.862 149.9 137.772 150.17C137.522 150.96 137.332 151.77 137.502 152.6C137.752 153.87 138.702 154.42 139.852 154.7C141.082 155 142.322 154.88 143.552 154.7C147.592 154.13 150.322 151.83 152.052 148.22C152.142 148.02 153.162 145.74 153.142 143.25C153.132 141.22 152.542 139.81 152.492 139.7C152.052 138.71 151.402 137.88 150.532 137.23C149.252 136.27 147.752 135.99 146.102 135.88C146.322 135.74 146.452 135.65 146.592 135.57V135.56ZM234.072 115.26C234.152 114.76 234.152 114.75 233.682 114.85C231.432 115.35 229.192 115.86 226.942 116.35C226.642 116.42 226.512 116.54 226.462 116.86C226.272 118.23 226.062 119.59 225.852 120.96C225.392 123.98 224.922 127 224.452 130.02C223.992 133.03 223.532 136.03 223.062 139.04C222.772 140.9 222.492 142.76 222.192 144.63C222.142 144.92 222.232 145 222.512 144.96C223.012 144.89 223.512 144.84 224.012 144.79C225.802 144.59 227.592 144.38 229.382 144.18C229.562 144.16 229.652 144.09 229.672 143.9C229.722 143.51 229.782 143.13 229.842 142.74C230.422 138.96 231.012 135.18 231.562 131.4C231.752 130.12 232.082 128.91 232.872 127.87C233.582 126.94 234.522 126.42 235.702 126.41C236.452 126.41 236.982 126.75 237.262 127.46C237.472 128 237.522 128.57 237.492 129.15C237.402 130.9 237.032 132.6 236.722 134.32C236.432 135.93 236.172 137.54 236.342 139.19C236.502 140.8 237.662 142.38 239.132 142.74C241.622 143.34 243.962 143.01 245.972 141.28C246.902 140.48 247.262 139.4 247.352 138.17C246.532 138.5 245.732 138.62 244.892 138.59C244.092 138.56 243.572 138.13 243.412 137.36C243.332 136.99 243.302 136.62 243.342 136.24C243.502 134.62 243.902 133.05 244.202 131.46C244.522 129.76 244.822 128.06 244.672 126.31C244.502 124.26 243.552 123.04 241.552 122.57C238.512 121.86 235.772 122.54 233.352 124.51C233.072 124.74 232.822 124.99 232.502 125.27C233.022 121.89 233.532 118.58 234.052 115.27L234.072 115.26ZM201.462 145.52C201.132 145.08 200.902 144.59 200.712 144.08C200.642 143.91 200.582 143.82 200.372 143.91C199.982 144.08 199.562 144.12 199.152 144.14C197.982 144.23 197.312 143.69 197.152 142.54C197.092 142.05 197.202 141.57 197.272 141.09C197.962 136.5 198.652 131.92 199.352 127.34C199.392 127.09 199.382 127 199.072 127.04C196.792 127.32 194.502 127.58 192.212 127.82C191.922 127.85 191.872 127.99 191.842 128.22C191.772 128.76 191.702 129.3 191.632 129.84C191.432 129.03 190.922 128.63 190.272 128.4C190.062 128.32 189.832 128.26 189.592 128.22C189.062 128.12 188.522 128.12 187.972 128.15C184.232 128.35 181.102 129.77 178.742 132.74C175.952 136.26 174.752 140.25 175.402 144.73C175.782 147.34 177.712 149.35 180.172 149.71C182.772 150.08 185.082 149.57 187.092 148.25C187.822 147.78 188.502 147.2 189.152 146.52C189.562 146.1 189.922 145.63 190.342 145.15C190.402 145.34 190.452 145.47 190.492 145.6C191.022 147.08 192.072 147.96 193.632 148.22C194.672 148.4 195.712 148.32 196.752 148.13C198.452 147.81 200.002 147.16 201.382 146.09C201.622 145.9 201.642 145.77 201.462 145.52ZM191.252 132.22C190.762 135.32 190.332 138.43 189.812 141.52C189.452 143.69 187.762 145.22 185.612 145.47C185.512 145.48 185.412 145.48 185.322 145.48C184.482 145.48 183.772 145.05 183.362 144.27C182.992 143.56 182.902 142.77 182.892 142C182.822 138.73 183.432 135.64 185.392 132.93C185.832 132.33 186.322 131.78 186.912 131.32C187.632 130.78 188.442 130.52 189.342 130.52H189.372C190.012 130.51 190.592 130.64 190.992 131.21C191.212 131.52 191.322 131.82 191.252 132.22ZM219.532 140.95C217.622 142.22 215.482 142.76 213.222 142.71C211.562 142.68 210.632 141.71 210.462 140.09C210.252 138.18 210.382 136.3 210.802 134.43C211.292 132.24 212.102 130.19 213.492 128.4C214.022 127.72 214.642 127.14 215.532 126.94C216.502 126.73 217.142 127.14 217.352 128.11C217.492 128.74 217.422 129.36 217.322 129.98C217.272 130.3 216.952 130.66 217.182 130.9C217.402 131.13 217.832 131.11 218.172 131.15C219.562 131.33 220.892 130.61 221.232 129.41C221.662 127.89 221.292 125.84 219.122 125.12C217.692 124.65 216.232 124.71 214.772 124.87C211.542 125.23 208.762 126.58 206.622 128.99C203.492 132.53 202.192 136.72 202.842 141.44C203.192 143.98 204.632 145.62 207.172 146.23C208.572 146.57 209.992 146.6 211.412 146.45C214.282 146.16 216.932 145.24 219.322 143.6C219.442 143.52 219.592 143.46 219.622 143.28C219.752 142.41 219.892 141.55 220.032 140.67C219.802 140.7 219.682 140.85 219.532 140.95ZM172.922 146.27C172.842 145.92 172.762 145.87 172.462 146.1C170.522 147.58 168.272 148.16 165.882 148.2C164.202 148.22 163.402 147.51 163.042 145.87C162.922 145.31 162.882 144.74 162.882 144.17C162.882 143.48 162.882 143.49 163.562 143.35C166.712 142.7 169.512 141.38 171.782 139.06C173.262 137.54 174.092 135.76 173.892 133.58C173.742 132.04 172.742 130.8 171.252 130.43C169.972 130.12 168.672 130.2 167.382 130.34C164.332 130.66 161.662 131.87 159.552 134.05C156.072 137.66 154.672 142.04 155.372 147.03C155.672 149.23 156.862 150.81 159.052 151.53C160.152 151.89 161.282 152.04 162.462 152.01C163.552 152.03 164.662 151.88 165.762 151.65C168.552 151.08 171.032 149.87 173.202 148.03C173.422 147.85 173.482 147.71 173.352 147.44C173.172 147.07 173.022 146.67 172.922 146.27ZM163.072 141.23C163.462 138.79 164.212 136.48 165.582 134.41C166.152 133.53 166.872 132.79 167.912 132.46C169.072 132.1 169.772 132.59 169.852 133.8C169.872 134.01 169.852 134.22 169.852 134.43C169.892 135.88 169.362 137.13 168.482 138.25C167.162 139.94 165.462 141.03 163.342 141.45C163.102 141.5 163.032 141.45 163.072 141.23Z" fill="white"/>
</g>
<g clip-path="url(#clip2_6_512)">
<path d="M166.678 762.545V762.619C168.968 762.619 170.335 763.498 170.686 765.495L171.019 767.363C171.13 767.986 171.444 768.444 171.924 768.444C172.035 768.444 172.183 768.426 172.238 768.408L172.275 768.536C171.777 768.811 170.539 769.085 169.394 769.085C167.214 769.085 165.959 768.279 165.959 766.282V764.175C165.959 763.351 165.7 762.729 164.556 762.729L163.965 766.923C163.78 768.224 164.169 768.553 165.11 768.553L165.092 768.737C165.092 768.737 163.467 768.682 161.546 768.682C159.625 768.682 158 768.737 158 768.737L158.018 768.553C158.96 768.553 159.533 767.692 159.736 766.264L160.934 757.728C161.119 756.426 160.73 756.097 159.788 756.097L159.807 755.914C159.807 755.914 161.432 755.969 163.353 755.969C164.628 755.969 166.012 755.914 167.306 755.914C169.984 755.914 171.701 756.977 171.701 758.845C171.701 760.714 170.205 762.307 166.677 762.545H166.678ZM164.591 762.49C166.493 762.49 167.306 760.182 167.306 758.35C167.306 757.049 166.899 756.133 165.957 756.133C165.809 756.133 165.624 756.151 165.477 756.206L164.591 762.489V762.49Z" fill="white"/>
<path d="M179.132 768.078C180.111 768.078 180.831 767.766 181.606 767.272L181.68 767.364C180.627 768.518 179.076 769.104 177.137 769.104C174.015 769.104 172.445 767.547 172.445 765.202C172.445 762.124 175.29 759.578 179.132 759.578C181.662 759.578 182.881 760.769 182.881 761.959C182.881 763.149 181.717 764.413 178.854 764.413C178.264 764.413 177.487 764.358 176.859 764.212C176.822 764.432 176.804 764.779 176.804 765.072C176.804 766.941 177.598 768.077 179.132 768.077V768.078ZM179.63 760.622C179.63 759.982 179.408 759.725 179.132 759.725C178.522 759.725 177.303 761.172 176.878 764.066C178.208 763.938 179.63 762.142 179.63 760.622Z" fill="white"/>
<path d="M189.661 761.503C189.661 760.458 190.473 759.579 191.693 759.579C193.152 759.579 194.002 760.678 194.002 762.015C194.002 765.954 190.659 769.104 186.133 769.104C184.821 769.104 183.861 768.5 183.861 767.419C183.861 766.76 183.953 766.118 184.083 765.33C184.083 765.33 184.71 761.465 184.71 760.769C184.71 760.476 184.544 760.329 184.341 760.329C184.193 760.329 183.989 760.384 183.824 760.494L183.75 760.366C183.75 760.366 184.766 759.578 186.539 759.578C187.37 759.578 188.626 759.835 188.682 761.337C188.682 761.538 188.682 761.74 188.645 761.959L187.98 766.777C187.943 767.015 187.906 767.308 187.906 767.546C187.906 767.986 188.036 768.389 188.515 768.389C190.566 768.389 193.225 765.788 193.225 764.121C193.225 763.058 192.357 762.509 191.304 762.509C190.897 762.509 190.473 762.601 190.122 762.803C189.789 762.381 189.66 761.923 189.66 761.502L189.661 761.503Z" fill="white"/>
<path d="M201.311 768.078C202.29 768.078 203.01 767.766 203.786 767.272L203.86 767.364C202.807 768.518 201.256 769.104 199.316 769.104C196.195 769.104 194.625 767.547 194.625 765.202C194.625 762.124 197.469 759.578 201.311 759.578C203.841 759.578 205.061 760.769 205.061 761.959C205.061 763.149 203.897 764.413 201.034 764.413C200.443 764.413 199.668 764.358 199.039 764.212C199.002 764.432 198.984 764.779 198.984 765.072C198.984 766.941 199.778 768.077 201.311 768.077V768.078ZM201.809 760.622C201.809 759.982 201.588 759.725 201.311 759.725C200.702 759.725 199.483 761.172 199.057 764.066C200.388 763.938 201.809 762.142 201.809 760.622Z" fill="white"/>
<path d="M209.808 767.439C209.771 767.677 209.753 767.824 209.753 767.933C209.753 768.208 209.9 768.354 210.122 768.354C210.289 768.354 210.455 768.299 210.639 768.189L210.713 768.318C210.713 768.318 209.697 769.105 207.924 769.105C207.093 769.105 205.837 768.849 205.781 767.347C205.781 767.145 205.781 766.962 205.818 766.724L207.186 757.144C207.204 757.015 207.222 756.85 207.222 756.777C207.222 756.264 206.945 756.081 206.354 756.081L206.299 755.916C209.106 755.916 211.6 755 211.6 755L209.808 767.437V767.439Z" fill="white"/>
</g>
<path d="M163.014 751.11C164.264 751.11 165.464 750.12 165.464 748.37V748.35C165.464 746.59 164.254 745.61 163.014 745.61C162.154 745.61 161.604 746.05 161.214 746.6V743.7H160.004V751H161.214V750.18C161.584 750.67 162.134 751.11 163.014 751.11ZM162.724 750.06C161.904 750.06 161.184 749.38 161.184 748.37V748.35C161.184 747.34 161.904 746.66 162.724 746.66C163.544 746.66 164.234 747.33 164.234 748.35V748.37C164.234 749.41 163.554 750.06 162.724 750.06ZM168.849 749.64L167.359 745.72H166.059L168.259 751.01C168.059 751.46 167.849 751.61 167.509 751.61C167.259 751.61 167.019 751.53 166.799 751.41L166.389 752.31C166.759 752.51 167.139 752.63 167.639 752.63C168.489 752.63 168.959 752.23 169.379 751.15L171.479 745.72H170.219L168.849 749.64Z" fill="white"/>
</g>
<defs>
<filter id="filter0_d_6_512" x="0" y="0" width="368" height="808" filterUnits="userSpaceOnUse" color-interpolation-filters="sRGB">
<feFlood flood-opacity="0" result="BackgroundImageFix"/>
<feColorMatrix in="SourceAlpha" type="matrix" values="0 0 0 0 0 0 0 0 0 0 0 0 0 0 0 0 0 0 127 0" result="hardAlpha"/>
<feOffset dy="4"/>
<feGaussianBlur stdDeviation="2"/>
<feComposite in2="hardAlpha" operator="out"/>
<feColorMatrix type="matrix" values="0 0 0 0 0 0 0 0 0 0 0 0 0 0 0 0 0 0 0.25 0"/>
<feBlend mode="normal" in2="BackgroundImageFix" result="effect1_dropShadow_6_512"/>
<feBlend mode="normal" in="SourceGraphic" in2="effect1_dropShadow_6_512" result="shape"/>
</filter>
<clipPath id="clip0_6_512">
<rect width="360" height="800" fill="white" transform="translate(4)"/>
</clipPath>
<clipPath id="clip1_6_512">
<rect width="126.37" height="103.47" fill="white" transform="translate(121 87)"/>
</clipPath>
<clipPath id="clip2_6_512">
<rect width="53.6" height="14.1053" fill="white" transform="translate(158 755)"/>
</clipPath>
</defs>
</svg>
